M48
; DRILL file KiCad 10.0.3 date 2026-06-18T17:59:43
; FORMAT={-:-/ absolute / metric / decimal}
; #@! TF.CreationDate,2026-06-18T17:59:43-04:00
; #@! TF.GenerationSoftware,Kicad,Pcbnew,10.0.3
; #@! TF.FileFunction,Plated,1,2,PTH
FMAT,2
METRIC
; #@! TA.AperFunction,Plated,PTH,ViaDrill
T1C0.300
; #@! TA.AperFunction,Plated,PTH,ComponentDrill
T2C0.750
; #@! TA.AperFunction,Plated,PTH,ComponentDrill
T3C0.990
; #@! TA.AperFunction,Plated,PTH,ComponentDrill
T4C1.000
; #@! TA.AperFunction,Plated,PTH,ComponentDrill
T5C1.300
%
G90
G05
T1
X34.75Y-23.345
X36.0Y-43.72
T2
X43.245Y-43.175
X45.245Y-43.175
T3
X51.245Y-44.5
X55.745Y-44.5
T4
X28.795Y-21.795
X28.795Y-24.335
X28.795Y-26.875
X28.795Y-29.415
X28.795Y-31.955
X28.795Y-34.495
X28.795Y-37.035
X28.795Y-39.575
X33.385Y-43.095
X33.385Y-45.635
X33.385Y-48.175
X33.385Y-50.715
X33.385Y-53.255
X38.0Y-43.13
X38.0Y-45.67
X38.0Y-48.21
X38.0Y-50.75
X38.0Y-53.29
T5
X49.995Y-46.99
X57.005Y-46.99
T4
G00X38.15Y-29.125
M15
G01X39.15Y-29.125
M16
G05
G00X38.161Y-27.225
M15
G01X39.161Y-27.225
M16
G05
M30
