%TF.GenerationSoftware,KiCad,Pcbnew,10.0.3*%
%TF.CreationDate,2026-06-18T17:59:37-04:00*%
%TF.ProjectId,Bitlace_Pendant,4269746c-6163-4655-9f50-656e64616e74,rev?*%
%TF.SameCoordinates,Original*%
%TF.FileFunction,Copper,L2,Bot*%
%TF.FilePolarity,Positive*%
%FSLAX46Y46*%
G04 Gerber Fmt 4.6, Leading zero omitted, Abs format (unit mm)*
G04 Created by KiCad (PCBNEW 10.0.3) date 2026-06-18 17:59:37*
%MOMM*%
%LPD*%
G01*
G04 APERTURE LIST*
G04 Aperture macros list*
%AMRoundRect*
0 Rectangle with rounded corners*
0 $1 Rounding radius*
0 $2 $3 $4 $5 $6 $7 $8 $9 X,Y pos of 4 corners*
0 Add a 4 corners polygon primitive as box body*
4,1,4,$2,$3,$4,$5,$6,$7,$8,$9,$2,$3,0*
0 Add four circle primitives for the rounded corners*
1,1,$1+$1,$2,$3*
1,1,$1+$1,$4,$5*
1,1,$1+$1,$6,$7*
1,1,$1+$1,$8,$9*
0 Add four rect primitives between the rounded corners*
20,1,$1+$1,$2,$3,$4,$5,0*
20,1,$1+$1,$4,$5,$6,$7,0*
20,1,$1+$1,$6,$7,$8,$9,0*
20,1,$1+$1,$8,$9,$2,$3,0*%
G04 Aperture macros list end*
%TA.AperFunction,ComponentPad*%
%ADD10O,2.500000X1.500000*%
%TD*%
%TA.AperFunction,ComponentPad*%
%ADD11C,2.100000*%
%TD*%
%TA.AperFunction,ComponentPad*%
%ADD12C,1.750000*%
%TD*%
%TA.AperFunction,ComponentPad*%
%ADD13R,1.700000X1.700000*%
%TD*%
%TA.AperFunction,ComponentPad*%
%ADD14C,1.700000*%
%TD*%
%TA.AperFunction,ComponentPad*%
%ADD15RoundRect,0.250000X-0.350000X-0.625000X0.350000X-0.625000X0.350000X0.625000X-0.350000X0.625000X0*%
%TD*%
%TA.AperFunction,ComponentPad*%
%ADD16O,1.200000X1.750000*%
%TD*%
%TA.AperFunction,ViaPad*%
%ADD17C,0.600000*%
%TD*%
%TA.AperFunction,Conductor*%
%ADD18C,0.250000*%
%TD*%
G04 APERTURE END LIST*
D10*
%TO.P,U1,B+*%
%TO.N,N/C*%
X38650000Y-29125000D03*
%TO.P,U1,B-*%
%TO.N,GND*%
X38661000Y-27225000D03*
%TD*%
D11*
%TO.P,SW1,*%
%TO.N,*%
X49995000Y-46990000D03*
X57005000Y-46990000D03*
D12*
%TO.P,SW1,1,1_1*%
%TO.N,Net-(U1-GPIO21_D6_TX)*%
X51245000Y-44500000D03*
%TO.P,SW1,2,2_2*%
%TO.N,GND*%
X55745000Y-44500000D03*
%TD*%
D13*
%TO.P,J4,1,Pin_1_1*%
%TO.N,Net-(J4-Pin_1)*%
X28795000Y-21795000D03*
D14*
%TO.P,J4,2,Pin_2_2*%
%TO.N,GND*%
X28795000Y-24335000D03*
%TO.P,J4,3,Pin_3_3*%
%TO.N,Net-(J4-Pin_3)*%
X28795000Y-26875000D03*
%TO.P,J4,4,Pin_4_4*%
%TO.N,Net-(J4-Pin_4)*%
X28795000Y-29415000D03*
%TO.P,J4,5,Pin_5_5*%
%TO.N,unconnected-(J4-Pin_5-Pad5)*%
X28795000Y-31955000D03*
%TO.P,J4,6,Pin_6_6*%
%TO.N,unconnected-(J4-Pin_6-Pad6)*%
X28795000Y-34495000D03*
%TO.P,J4,7,Pin_7_7*%
%TO.N,unconnected-(J4-Pin_7-Pad7)*%
X28795000Y-37035000D03*
%TO.P,J4,8,Pin_8_8*%
%TO.N,unconnected-(J4-Pin_8-Pad8)*%
X28795000Y-39575000D03*
%TD*%
D13*
%TO.P,J3,1,Pin_1_1*%
%TO.N,Net-(J1-Pin_1)*%
X38000000Y-43130000D03*
D14*
%TO.P,J3,2,Pin_2_2*%
%TO.N,Net-(J3-Pin_2)*%
X38000000Y-45670000D03*
%TO.P,J3,3,Pin_3_3*%
%TO.N,GND*%
X38000000Y-48210000D03*
%TO.P,J3,4*%
%TO.N,N/C*%
X38000000Y-50750000D03*
%TO.P,J3,5*%
X38000000Y-53290000D03*
%TD*%
D15*
%TO.P,J2,1,Pin_1_1*%
%TO.N,Net-(J2-Pin_1)*%
X43245000Y-43175000D03*
D16*
%TO.P,J2,2,Pin_2_2*%
%TO.N,GND*%
X45245000Y-43175000D03*
%TD*%
D13*
%TO.P,J1,1,Pin_1_1*%
%TO.N,Net-(J1-Pin_1)*%
X33385000Y-43095000D03*
D14*
%TO.P,J1,2,Pin_2_2*%
%TO.N,GND*%
X33385000Y-45635000D03*
%TO.P,J1,3,Pin_3_3*%
%TO.N,Net-(J1-Pin_3)*%
X33385000Y-48175000D03*
%TO.P,J1,4,Pin_4_4*%
%TO.N,Net-(J1-Pin_4)*%
X33385000Y-50715000D03*
%TO.P,J1,5,Pin_5_5*%
%TO.N,Net-(J1-Pin_5)*%
X33385000Y-53255000D03*
%TD*%
D17*
%TO.N,Net-(J3-Pin_2)*%
X34750000Y-23344998D03*
X36000000Y-43720000D03*
%TD*%
%TO.N,Net-(J3-Pin_2)*%
D18*
X36000000Y-24594998D02*
X34750000Y-23344998D01*
X36000000Y-43720000D02*
X36000000Y-24594998D01*
%TD*%
%TA.AperFunction,Conductor*%
%TO.N,GND*%
G36*
X60942539Y-17020185D02*
G01*
X60988294Y-17072989D01*
X60999500Y-17124500D01*
X60999500Y-57875500D01*
X60979815Y-57942539D01*
X60927011Y-57988294D01*
X60875500Y-57999500D01*
X19624500Y-57999500D01*
X19557461Y-57979815D01*
X19511706Y-57927011D01*
X19500500Y-57875500D01*
X19500500Y-42197135D01*
X32034500Y-42197135D01*
X32034500Y-43992870D01*
X32034501Y-43992876D01*
X32040908Y-44052483D01*
X32091202Y-44187328D01*
X32091206Y-44187335D01*
X32177452Y-44302544D01*
X32177455Y-44302547D01*
X32292664Y-44388793D01*
X32292671Y-44388797D01*
X32303168Y-44392712D01*
X32427517Y-44439091D01*
X32487127Y-44445500D01*
X32497685Y-44445499D01*
X32564723Y-44465179D01*
X32585372Y-44481818D01*
X33255591Y-45152037D01*
X33192007Y-45169075D01*
X33077993Y-45234901D01*
X32984901Y-45327993D01*
X32919075Y-45442007D01*
X32902037Y-45505591D01*
X32269728Y-44873282D01*
X32269727Y-44873282D01*
X32230380Y-44927439D01*
X32133904Y-45116782D01*
X32068242Y-45318869D01*
X32068242Y-45318872D01*
X32035000Y-45528753D01*
X32035000Y-45741246D01*
X32068242Y-45951127D01*
X32068242Y-45951130D01*
X32133904Y-46153217D01*
X32230375Y-46342550D01*
X32269728Y-46396716D01*
X32902037Y-45764408D01*
X32919075Y-45827993D01*
X32984901Y-45942007D01*
X33077993Y-46035099D01*
X33192007Y-46100925D01*
X33255590Y-46117962D01*
X32623282Y-46750269D01*
X32623282Y-46750270D01*
X32677452Y-46789626D01*
X32677451Y-46789626D01*
X32686495Y-46794234D01*
X32737292Y-46842208D01*
X32754087Y-46910029D01*
X32731550Y-46976164D01*
X32686499Y-47015202D01*
X32677182Y-47019949D01*
X32505213Y-47144890D01*
X32354890Y-47295213D01*
X32229951Y-47467179D01*
X32133444Y-47656585D01*
X32067753Y-47858760D01*
X32034500Y-48068713D01*
X32034500Y-48281286D01*
X32057563Y-48426904D01*
X32067754Y-48491243D01*
X32091249Y-48563554D01*
X32133444Y-48693414D01*
X32229951Y-48882820D01*
X32354890Y-49054786D01*
X32505213Y-49205109D01*
X32677182Y-49330050D01*
X32685946Y-49334516D01*
X32736742Y-49382491D01*
X32753536Y-49450312D01*
X32730998Y-49516447D01*
X32685946Y-49555484D01*
X32677182Y-49559949D01*
X32505213Y-49684890D01*
X32354890Y-49835213D01*
X32229951Y-50007179D01*
X32133444Y-50196585D01*
X32067753Y-50398760D01*
X32062210Y-50433760D01*
X32034500Y-50608713D01*
X32034500Y-50821287D01*
X32067754Y-51031243D01*
X32079126Y-51066243D01*
X32133444Y-51233414D01*
X32229951Y-51422820D01*
X32354890Y-51594786D01*
X32505213Y-51745109D01*
X32677182Y-51870050D01*
X32685946Y-51874516D01*
X32736742Y-51922491D01*
X32753536Y-51990312D01*
X32730998Y-52056447D01*
X32685946Y-52095484D01*
X32677182Y-52099949D01*
X32505213Y-52224890D01*
X32354890Y-52375213D01*
X32229951Y-52547179D01*
X32133444Y-52736585D01*
X32067753Y-52938760D01*
X32062210Y-52973760D01*
X32034500Y-53148713D01*
X32034500Y-53361287D01*
X32067754Y-53571243D01*
X32079126Y-53606243D01*
X32133444Y-53773414D01*
X32229951Y-53962820D01*
X32354890Y-54134786D01*
X32505213Y-54285109D01*
X32677179Y-54410048D01*
X32677181Y-54410049D01*
X32677184Y-54410051D01*
X32866588Y-54506557D01*
X33068757Y-54572246D01*
X33278713Y-54605500D01*
X33278714Y-54605500D01*
X33491286Y-54605500D01*
X33491287Y-54605500D01*
X33701243Y-54572246D01*
X33903412Y-54506557D01*
X34092816Y-54410051D01*
X34114789Y-54394086D01*
X34264786Y-54285109D01*
X34264788Y-54285106D01*
X34264792Y-54285104D01*
X34415104Y-54134792D01*
X34415106Y-54134788D01*
X34415109Y-54134786D01*
X34540048Y-53962820D01*
X34540047Y-53962820D01*
X34540051Y-53962816D01*
X34636557Y-53773412D01*
X34702246Y-53571243D01*
X34735500Y-53361287D01*
X34735500Y-53148713D01*
X34702246Y-52938757D01*
X34636557Y-52736588D01*
X34540051Y-52547184D01*
X34540049Y-52547181D01*
X34540048Y-52547179D01*
X34415109Y-52375213D01*
X34264786Y-52224890D01*
X34092820Y-52099951D01*
X34092115Y-52099591D01*
X34084054Y-52095485D01*
X34033259Y-52047512D01*
X34016463Y-51979692D01*
X34038999Y-51913556D01*
X34084054Y-51874515D01*
X34092816Y-51870051D01*
X34114789Y-51854086D01*
X34264786Y-51745109D01*
X34264788Y-51745106D01*
X34264792Y-51745104D01*
X34415104Y-51594792D01*
X34415106Y-51594788D01*
X34415109Y-51594786D01*
X34540048Y-51422820D01*
X34540047Y-51422820D01*
X34540051Y-51422816D01*
X34636557Y-51233412D01*
X34702246Y-51031243D01*
X34735500Y-50821287D01*
X34735500Y-50608713D01*
X34702246Y-50398757D01*
X34636557Y-50196588D01*
X34540051Y-50007184D01*
X34540049Y-50007181D01*
X34540048Y-50007179D01*
X34415109Y-49835213D01*
X34264786Y-49684890D01*
X34092820Y-49559951D01*
X34092115Y-49559591D01*
X34084054Y-49555485D01*
X34033259Y-49507512D01*
X34016463Y-49439692D01*
X34038999Y-49373556D01*
X34084054Y-49334515D01*
X34092816Y-49330051D01*
X34114789Y-49314086D01*
X34264786Y-49205109D01*
X34264788Y-49205106D01*
X34264792Y-49205104D01*
X34415104Y-49054792D01*
X34415106Y-49054788D01*
X34415109Y-49054786D01*
X34540048Y-48882820D01*
X34540047Y-48882820D01*
X34540051Y-48882816D01*
X34636557Y-48693412D01*
X34702246Y-48491243D01*
X34735500Y-48281287D01*
X34735500Y-48068713D01*
X34702246Y-47858757D01*
X34636557Y-47656588D01*
X34540051Y-47467184D01*
X34540049Y-47467181D01*
X34540048Y-47467179D01*
X34415109Y-47295213D01*
X34264786Y-47144890D01*
X34092817Y-47019949D01*
X34083504Y-47015204D01*
X34032707Y-46967230D01*
X34015912Y-46899409D01*
X34038449Y-46833274D01*
X34083507Y-46794232D01*
X34092555Y-46789622D01*
X34146716Y-46750270D01*
X34146717Y-46750270D01*
X33514408Y-46117962D01*
X33577993Y-46100925D01*
X33692007Y-46035099D01*
X33785099Y-45942007D01*
X33850925Y-45827993D01*
X33867962Y-45764408D01*
X34500270Y-46396717D01*
X34500270Y-46396716D01*
X34539622Y-46342554D01*
X34636095Y-46153217D01*
X34701757Y-45951130D01*
X34701757Y-45951127D01*
X34735000Y-45741246D01*
X34735000Y-45528753D01*
X34701757Y-45318872D01*
X34701757Y-45318869D01*
X34636095Y-45116782D01*
X34539624Y-44927449D01*
X34500270Y-44873282D01*
X34500269Y-44873282D01*
X33867962Y-45505590D01*
X33850925Y-45442007D01*
X33785099Y-45327993D01*
X33692007Y-45234901D01*
X33577993Y-45169075D01*
X33514409Y-45152037D01*
X34184627Y-44481818D01*
X34245950Y-44448333D01*
X34272307Y-44445499D01*
X34282872Y-44445499D01*
X34342483Y-44439091D01*
X34477331Y-44388796D01*
X34592546Y-44302546D01*
X34678796Y-44187331D01*
X34729091Y-44052483D01*
X34735500Y-43992873D01*
X34735499Y-42197128D01*
X34729091Y-42137517D01*
X34691848Y-42037664D01*
X34678797Y-42002671D01*
X34678793Y-42002664D01*
X34592547Y-41887455D01*
X34592544Y-41887452D01*
X34477335Y-41801206D01*
X34477328Y-41801202D01*
X34342482Y-41750908D01*
X34342483Y-41750908D01*
X34282883Y-41744501D01*
X34282881Y-41744500D01*
X34282873Y-41744500D01*
X34282864Y-41744500D01*
X32487129Y-41744500D01*
X32487123Y-41744501D01*
X32427516Y-41750908D01*
X32292671Y-41801202D01*
X32292664Y-41801206D01*
X32177455Y-41887452D01*
X32177452Y-41887455D01*
X32091206Y-42002664D01*
X32091202Y-42002671D01*
X32040908Y-42137517D01*
X32034501Y-42197116D01*
X32034501Y-42197123D01*
X32034500Y-42197135D01*
X19500500Y-42197135D01*
X19500500Y-20897135D01*
X27444500Y-20897135D01*
X27444500Y-22692870D01*
X27444501Y-22692876D01*
X27450908Y-22752483D01*
X27501202Y-22887328D01*
X27501206Y-22887335D01*
X27587452Y-23002544D01*
X27587455Y-23002547D01*
X27702664Y-23088793D01*
X27702671Y-23088797D01*
X27747618Y-23105561D01*
X27837517Y-23139091D01*
X27897127Y-23145500D01*
X27907685Y-23145499D01*
X27974723Y-23165179D01*
X27995372Y-23181818D01*
X28665591Y-23852037D01*
X28602007Y-23869075D01*
X28487993Y-23934901D01*
X28394901Y-24027993D01*
X28329075Y-24142007D01*
X28312037Y-24205591D01*
X27679728Y-23573282D01*
X27679727Y-23573282D01*
X27640380Y-23627439D01*
X27543904Y-23816782D01*
X27478242Y-24018869D01*
X27478242Y-24018872D01*
X27445000Y-24228753D01*
X27445000Y-24441246D01*
X27478242Y-24651127D01*
X27478242Y-24651130D01*
X27543904Y-24853217D01*
X27640375Y-25042550D01*
X27679728Y-25096716D01*
X28312037Y-24464408D01*
X28329075Y-24527993D01*
X28394901Y-24642007D01*
X28487993Y-24735099D01*
X28602007Y-24800925D01*
X28665590Y-24817962D01*
X28033282Y-25450269D01*
X28033282Y-25450270D01*
X28087452Y-25489626D01*
X28087451Y-25489626D01*
X28096495Y-25494234D01*
X28147292Y-25542208D01*
X28164087Y-25610029D01*
X28141550Y-25676164D01*
X28096499Y-25715202D01*
X28087182Y-25719949D01*
X27915213Y-25844890D01*
X27764890Y-25995213D01*
X27639951Y-26167179D01*
X27543444Y-26356585D01*
X27477753Y-26558760D01*
X27444500Y-26768713D01*
X27444500Y-26981286D01*
X27477753Y-27191239D01*
X27543444Y-27393414D01*
X27639951Y-27582820D01*
X27764890Y-27754786D01*
X27915213Y-27905109D01*
X28087182Y-28030050D01*
X28095946Y-28034516D01*
X28146742Y-28082491D01*
X28163536Y-28150312D01*
X28140998Y-28216447D01*
X28095946Y-28255484D01*
X28087182Y-28259949D01*
X27915213Y-28384890D01*
X27764890Y-28535213D01*
X27639951Y-28707179D01*
X27543444Y-28896585D01*
X27477753Y-29098760D01*
X27444500Y-29308713D01*
X27444500Y-29521286D01*
X27477753Y-29731239D01*
X27543444Y-29933414D01*
X27639951Y-30122820D01*
X27764890Y-30294786D01*
X27915213Y-30445109D01*
X28087182Y-30570050D01*
X28095946Y-30574516D01*
X28146742Y-30622491D01*
X28163536Y-30690312D01*
X28140998Y-30756447D01*
X28095946Y-30795484D01*
X28087182Y-30799949D01*
X27915213Y-30924890D01*
X27764890Y-31075213D01*
X27639951Y-31247179D01*
X27543444Y-31436585D01*
X27477753Y-31638760D01*
X27444500Y-31848713D01*
X27444500Y-32061286D01*
X27477753Y-32271239D01*
X27543444Y-32473414D01*
X27639951Y-32662820D01*
X27764890Y-32834786D01*
X27915213Y-32985109D01*
X28087182Y-33110050D01*
X28095946Y-33114516D01*
X28146742Y-33162491D01*
X28163536Y-33230312D01*
X28140998Y-33296447D01*
X28095946Y-33335484D01*
X28087182Y-33339949D01*
X27915213Y-33464890D01*
X27764890Y-33615213D01*
X27639951Y-33787179D01*
X27543444Y-33976585D01*
X27477753Y-34178760D01*
X27444500Y-34388713D01*
X27444500Y-34601286D01*
X27477753Y-34811239D01*
X27543444Y-35013414D01*
X27639951Y-35202820D01*
X27764890Y-35374786D01*
X27915213Y-35525109D01*
X28087182Y-35650050D01*
X28095946Y-35654516D01*
X28146742Y-35702491D01*
X28163536Y-35770312D01*
X28140998Y-35836447D01*
X28095946Y-35875484D01*
X28087182Y-35879949D01*
X27915213Y-36004890D01*
X27764890Y-36155213D01*
X27639951Y-36327179D01*
X27543444Y-36516585D01*
X27477753Y-36718760D01*
X27444500Y-36928713D01*
X27444500Y-37141286D01*
X27477753Y-37351239D01*
X27543444Y-37553414D01*
X27639951Y-37742820D01*
X27764890Y-37914786D01*
X27915213Y-38065109D01*
X28087182Y-38190050D01*
X28095946Y-38194516D01*
X28146742Y-38242491D01*
X28163536Y-38310312D01*
X28140998Y-38376447D01*
X28095946Y-38415484D01*
X28087182Y-38419949D01*
X27915213Y-38544890D01*
X27764890Y-38695213D01*
X27639951Y-38867179D01*
X27543444Y-39056585D01*
X27477753Y-39258760D01*
X27444500Y-39468713D01*
X27444500Y-39681286D01*
X27477753Y-39891239D01*
X27543444Y-40093414D01*
X27639951Y-40282820D01*
X27764890Y-40454786D01*
X27915213Y-40605109D01*
X28087179Y-40730048D01*
X28087181Y-40730049D01*
X28087184Y-40730051D01*
X28276588Y-40826557D01*
X28478757Y-40892246D01*
X28688713Y-40925500D01*
X28688714Y-40925500D01*
X28901286Y-40925500D01*
X28901287Y-40925500D01*
X29111243Y-40892246D01*
X29313412Y-40826557D01*
X29502816Y-40730051D01*
X29524789Y-40714086D01*
X29674786Y-40605109D01*
X29674788Y-40605106D01*
X29674792Y-40605104D01*
X29825104Y-40454792D01*
X29825106Y-40454788D01*
X29825109Y-40454786D01*
X29950048Y-40282820D01*
X29950047Y-40282820D01*
X29950051Y-40282816D01*
X30046557Y-40093412D01*
X30112246Y-39891243D01*
X30145500Y-39681287D01*
X30145500Y-39468713D01*
X30112246Y-39258757D01*
X30046557Y-39056588D01*
X29950051Y-38867184D01*
X29950049Y-38867181D01*
X29950048Y-38867179D01*
X29825109Y-38695213D01*
X29674786Y-38544890D01*
X29502820Y-38419951D01*
X29502115Y-38419591D01*
X29494054Y-38415485D01*
X29443259Y-38367512D01*
X29426463Y-38299692D01*
X29448999Y-38233556D01*
X29494054Y-38194515D01*
X29502816Y-38190051D01*
X29524789Y-38174086D01*
X29674786Y-38065109D01*
X29674788Y-38065106D01*
X29674792Y-38065104D01*
X29825104Y-37914792D01*
X29825106Y-37914788D01*
X29825109Y-37914786D01*
X29950048Y-37742820D01*
X29950047Y-37742820D01*
X29950051Y-37742816D01*
X30046557Y-37553412D01*
X30112246Y-37351243D01*
X30145500Y-37141287D01*
X30145500Y-36928713D01*
X30112246Y-36718757D01*
X30046557Y-36516588D01*
X29950051Y-36327184D01*
X29950049Y-36327181D01*
X29950048Y-36327179D01*
X29825109Y-36155213D01*
X29674786Y-36004890D01*
X29502820Y-35879951D01*
X29502115Y-35879591D01*
X29494054Y-35875485D01*
X29443259Y-35827512D01*
X29426463Y-35759692D01*
X29448999Y-35693556D01*
X29494054Y-35654515D01*
X29502816Y-35650051D01*
X29524789Y-35634086D01*
X29674786Y-35525109D01*
X29674788Y-35525106D01*
X29674792Y-35525104D01*
X29825104Y-35374792D01*
X29825106Y-35374788D01*
X29825109Y-35374786D01*
X29950048Y-35202820D01*
X29950047Y-35202820D01*
X29950051Y-35202816D01*
X30046557Y-35013412D01*
X30112246Y-34811243D01*
X30145500Y-34601287D01*
X30145500Y-34388713D01*
X30112246Y-34178757D01*
X30046557Y-33976588D01*
X29950051Y-33787184D01*
X29950049Y-33787181D01*
X29950048Y-33787179D01*
X29825109Y-33615213D01*
X29674786Y-33464890D01*
X29502820Y-33339951D01*
X29502115Y-33339591D01*
X29494054Y-33335485D01*
X29443259Y-33287512D01*
X29426463Y-33219692D01*
X29448999Y-33153556D01*
X29494054Y-33114515D01*
X29502816Y-33110051D01*
X29524789Y-33094086D01*
X29674786Y-32985109D01*
X29674788Y-32985106D01*
X29674792Y-32985104D01*
X29825104Y-32834792D01*
X29825106Y-32834788D01*
X29825109Y-32834786D01*
X29950048Y-32662820D01*
X29950047Y-32662820D01*
X29950051Y-32662816D01*
X30046557Y-32473412D01*
X30112246Y-32271243D01*
X30145500Y-32061287D01*
X30145500Y-31848713D01*
X30112246Y-31638757D01*
X30046557Y-31436588D01*
X29950051Y-31247184D01*
X29950049Y-31247181D01*
X29950048Y-31247179D01*
X29825109Y-31075213D01*
X29674786Y-30924890D01*
X29502820Y-30799951D01*
X29502115Y-30799591D01*
X29494054Y-30795485D01*
X29443259Y-30747512D01*
X29426463Y-30679692D01*
X29448999Y-30613556D01*
X29494054Y-30574515D01*
X29502816Y-30570051D01*
X29524789Y-30554086D01*
X29674786Y-30445109D01*
X29674788Y-30445106D01*
X29674792Y-30445104D01*
X29825104Y-30294792D01*
X29825106Y-30294788D01*
X29825109Y-30294786D01*
X29950048Y-30122820D01*
X29950047Y-30122820D01*
X29950051Y-30122816D01*
X30046557Y-29933412D01*
X30112246Y-29731243D01*
X30145500Y-29521287D01*
X30145500Y-29308713D01*
X30112246Y-29098757D01*
X30046557Y-28896588D01*
X29950051Y-28707184D01*
X29950049Y-28707181D01*
X29950048Y-28707179D01*
X29825109Y-28535213D01*
X29674786Y-28384890D01*
X29502820Y-28259951D01*
X29502115Y-28259591D01*
X29494054Y-28255485D01*
X29443259Y-28207512D01*
X29426463Y-28139692D01*
X29448999Y-28073556D01*
X29494054Y-28034515D01*
X29502816Y-28030051D01*
X29674535Y-27905291D01*
X29674786Y-27905109D01*
X29674788Y-27905106D01*
X29674792Y-27905104D01*
X29825104Y-27754792D01*
X29825106Y-27754788D01*
X29825109Y-27754786D01*
X29950048Y-27582820D01*
X29950047Y-27582820D01*
X29950051Y-27582816D01*
X30046557Y-27393412D01*
X30112246Y-27191243D01*
X30145500Y-26981287D01*
X30145500Y-26768713D01*
X30112246Y-26558757D01*
X30046557Y-26356588D01*
X29950051Y-26167184D01*
X29950049Y-26167181D01*
X29950048Y-26167179D01*
X29825109Y-25995213D01*
X29674786Y-25844890D01*
X29502817Y-25719949D01*
X29493504Y-25715204D01*
X29442707Y-25667230D01*
X29425912Y-25599409D01*
X29448449Y-25533274D01*
X29493507Y-25494232D01*
X29502555Y-25489622D01*
X29556716Y-25450270D01*
X29556717Y-25450270D01*
X28924408Y-24817962D01*
X28987993Y-24800925D01*
X29102007Y-24735099D01*
X29195099Y-24642007D01*
X29260925Y-24527993D01*
X29277962Y-24464408D01*
X29910270Y-25096717D01*
X29910270Y-25096716D01*
X29949622Y-25042554D01*
X30046095Y-24853217D01*
X30111757Y-24651130D01*
X30111757Y-24651127D01*
X30145000Y-24441246D01*
X30145000Y-24228753D01*
X30111757Y-24018872D01*
X30111757Y-24018869D01*
X30046095Y-23816782D01*
X29949624Y-23627449D01*
X29910270Y-23573282D01*
X29910269Y-23573282D01*
X29277962Y-24205590D01*
X29260925Y-24142007D01*
X29195099Y-24027993D01*
X29102007Y-23934901D01*
X28987993Y-23869075D01*
X28924409Y-23852037D01*
X29510294Y-23266151D01*
X33949500Y-23266151D01*
X33949500Y-23423844D01*
X33980261Y-23578487D01*
X33980264Y-23578499D01*
X34040602Y-23724170D01*
X34040609Y-23724183D01*
X34128210Y-23855286D01*
X34128213Y-23855290D01*
X34239707Y-23966784D01*
X34239711Y-23966787D01*
X34370814Y-24054388D01*
X34370827Y-24054395D01*
X34458230Y-24090597D01*
X34516503Y-24114735D01*
X34627716Y-24136856D01*
X34689623Y-24169239D01*
X34691203Y-24170791D01*
X35338181Y-24817769D01*
X35371666Y-24879092D01*
X35374500Y-24905450D01*
X35374500Y-43177650D01*
X35354815Y-43244689D01*
X35353626Y-43246503D01*
X35332802Y-43277668D01*
X35290609Y-43340815D01*
X35290602Y-43340828D01*
X35230264Y-43486498D01*
X35230261Y-43486510D01*
X35199500Y-43641153D01*
X35199500Y-43798846D01*
X35230261Y-43953489D01*
X35230264Y-43953501D01*
X35290602Y-44099172D01*
X35290609Y-44099185D01*
X35378210Y-44230288D01*
X35378213Y-44230292D01*
X35489707Y-44341786D01*
X35489711Y-44341789D01*
X35620814Y-44429390D01*
X35620827Y-44429397D01*
X35766474Y-44489725D01*
X35766503Y-44489737D01*
X35921153Y-44520499D01*
X35921156Y-44520500D01*
X35921158Y-44520500D01*
X36078844Y-44520500D01*
X36078845Y-44520499D01*
X36233497Y-44489737D01*
X36355773Y-44439089D01*
X36379172Y-44429397D01*
X36379172Y-44429396D01*
X36379179Y-44429394D01*
X36510289Y-44341789D01*
X36572284Y-44279793D01*
X36633605Y-44246310D01*
X36703297Y-44251294D01*
X36759229Y-44293163D01*
X36792454Y-44337546D01*
X36838643Y-44372123D01*
X36907664Y-44423793D01*
X36907671Y-44423797D01*
X37039082Y-44472810D01*
X37095016Y-44514681D01*
X37119433Y-44580145D01*
X37104582Y-44648418D01*
X37083431Y-44676673D01*
X36969889Y-44790215D01*
X36844951Y-44962179D01*
X36748444Y-45151585D01*
X36682753Y-45353760D01*
X36659872Y-45498228D01*
X36649500Y-45563713D01*
X36649500Y-45776287D01*
X36659534Y-45839644D01*
X36677192Y-45951130D01*
X36682754Y-45986243D01*
X36744852Y-46177361D01*
X36748444Y-46188414D01*
X36844951Y-46377820D01*
X36969890Y-46549786D01*
X37120213Y-46700109D01*
X37292179Y-46825048D01*
X37292181Y-46825049D01*
X37292184Y-46825051D01*
X37301493Y-46829794D01*
X37352290Y-46877766D01*
X37369087Y-46945587D01*
X37346552Y-47011722D01*
X37301505Y-47050760D01*
X37292446Y-47055376D01*
X37292440Y-47055380D01*
X37238282Y-47094727D01*
X37238282Y-47094728D01*
X37870591Y-47727037D01*
X37807007Y-47744075D01*
X37692993Y-47809901D01*
X37599901Y-47902993D01*
X37534075Y-48017007D01*
X37517037Y-48080591D01*
X36884728Y-47448282D01*
X36884727Y-47448282D01*
X36845380Y-47502439D01*
X36748904Y-47691782D01*
X36683242Y-47893869D01*
X36683242Y-47893872D01*
X36650000Y-48103753D01*
X36650000Y-48316246D01*
X36683242Y-48526127D01*
X36683242Y-48526130D01*
X36748904Y-48728217D01*
X36845375Y-48917550D01*
X36884728Y-48971716D01*
X37517037Y-48339408D01*
X37534075Y-48402993D01*
X37599901Y-48517007D01*
X37692993Y-48610099D01*
X37807007Y-48675925D01*
X37870590Y-48692962D01*
X37238282Y-49325269D01*
X37238282Y-49325270D01*
X37292452Y-49364626D01*
X37292451Y-49364626D01*
X37301495Y-49369234D01*
X37352292Y-49417208D01*
X37369087Y-49485029D01*
X37346550Y-49551164D01*
X37301499Y-49590202D01*
X37292182Y-49594949D01*
X37120213Y-49719890D01*
X36969890Y-49870213D01*
X36844951Y-50042179D01*
X36748444Y-50231585D01*
X36682753Y-50433760D01*
X36649500Y-50643713D01*
X36649500Y-50856286D01*
X36677210Y-51031243D01*
X36682754Y-51066243D01*
X36737071Y-51233414D01*
X36748444Y-51268414D01*
X36844951Y-51457820D01*
X36969890Y-51629786D01*
X37120213Y-51780109D01*
X37292182Y-51905050D01*
X37300946Y-51909516D01*
X37351742Y-51957491D01*
X37368536Y-52025312D01*
X37345998Y-52091447D01*
X37300946Y-52130484D01*
X37292182Y-52134949D01*
X37120213Y-52259890D01*
X36969890Y-52410213D01*
X36844951Y-52582179D01*
X36748444Y-52771585D01*
X36682753Y-52973760D01*
X36649500Y-53183713D01*
X36649500Y-53396286D01*
X36677210Y-53571243D01*
X36682754Y-53606243D01*
X36737071Y-53773414D01*
X36748444Y-53808414D01*
X36844951Y-53997820D01*
X36969890Y-54169786D01*
X37120213Y-54320109D01*
X37292179Y-54445048D01*
X37292181Y-54445049D01*
X37292184Y-54445051D01*
X37481588Y-54541557D01*
X37683757Y-54607246D01*
X37893713Y-54640500D01*
X37893714Y-54640500D01*
X38106286Y-54640500D01*
X38106287Y-54640500D01*
X38316243Y-54607246D01*
X38518412Y-54541557D01*
X38707816Y-54445051D01*
X38755994Y-54410048D01*
X38879786Y-54320109D01*
X38879788Y-54320106D01*
X38879792Y-54320104D01*
X39030104Y-54169792D01*
X39030106Y-54169788D01*
X39030109Y-54169786D01*
X39155048Y-53997820D01*
X39155047Y-53997820D01*
X39155051Y-53997816D01*
X39251557Y-53808412D01*
X39317246Y-53606243D01*
X39350500Y-53396287D01*
X39350500Y-53183713D01*
X39317246Y-52973757D01*
X39251557Y-52771588D01*
X39155051Y-52582184D01*
X39155049Y-52582181D01*
X39155048Y-52582179D01*
X39030109Y-52410213D01*
X38879786Y-52259890D01*
X38707820Y-52134951D01*
X38707115Y-52134591D01*
X38699054Y-52130485D01*
X38648259Y-52082512D01*
X38631463Y-52014692D01*
X38653999Y-51948556D01*
X38699054Y-51909515D01*
X38707816Y-51905051D01*
X38755994Y-51870048D01*
X38879786Y-51780109D01*
X38879788Y-51780106D01*
X38879792Y-51780104D01*
X39030104Y-51629792D01*
X39030106Y-51629788D01*
X39030109Y-51629786D01*
X39155048Y-51457820D01*
X39155047Y-51457820D01*
X39155051Y-51457816D01*
X39251557Y-51268412D01*
X39317246Y-51066243D01*
X39350500Y-50856287D01*
X39350500Y-50643713D01*
X39317246Y-50433757D01*
X39251557Y-50231588D01*
X39155051Y-50042184D01*
X39155049Y-50042181D01*
X39155048Y-50042179D01*
X39030109Y-49870213D01*
X38879786Y-49719890D01*
X38707817Y-49594949D01*
X38698504Y-49590204D01*
X38647707Y-49542230D01*
X38630912Y-49474409D01*
X38653449Y-49408274D01*
X38698507Y-49369232D01*
X38707555Y-49364622D01*
X38761716Y-49325270D01*
X38761717Y-49325270D01*
X38129408Y-48692962D01*
X38192993Y-48675925D01*
X38307007Y-48610099D01*
X38400099Y-48517007D01*
X38465925Y-48402993D01*
X38482962Y-48339409D01*
X39115270Y-48971717D01*
X39115270Y-48971716D01*
X39154622Y-48917554D01*
X39251095Y-48728217D01*
X39316757Y-48526130D01*
X39316757Y-48526127D01*
X39350000Y-48316246D01*
X39350000Y-48103753D01*
X39316757Y-47893872D01*
X39316757Y-47893869D01*
X39251095Y-47691782D01*
X39154624Y-47502449D01*
X39115270Y-47448282D01*
X39115269Y-47448282D01*
X38482962Y-48080590D01*
X38465925Y-48017007D01*
X38400099Y-47902993D01*
X38307007Y-47809901D01*
X38192993Y-47744075D01*
X38129409Y-47727037D01*
X38761716Y-47094728D01*
X38707547Y-47055373D01*
X38707547Y-47055372D01*
X38698500Y-47050763D01*
X38695422Y-47047856D01*
X38691323Y-47046802D01*
X38670239Y-47024070D01*
X38647706Y-47002788D01*
X38646688Y-46998679D01*
X38643809Y-46995575D01*
X38638361Y-46965052D01*
X38630912Y-46934966D01*
X38632277Y-46930958D01*
X38631534Y-46926792D01*
X38643449Y-46898178D01*
X38653451Y-46868832D01*
X38654318Y-46867973D01*
X48444500Y-46867973D01*
X48444500Y-47112027D01*
X48482679Y-47353076D01*
X48558096Y-47585185D01*
X48639054Y-47744075D01*
X48668896Y-47802642D01*
X48812339Y-48000076D01*
X48812343Y-48000081D01*
X48984918Y-48172656D01*
X48984923Y-48172660D01*
X49157136Y-48297779D01*
X49182361Y-48316106D01*
X49399815Y-48426904D01*
X49631924Y-48502321D01*
X49872973Y-48540500D01*
X49872974Y-48540500D01*
X50117026Y-48540500D01*
X50117027Y-48540500D01*
X50358076Y-48502321D01*
X50590185Y-48426904D01*
X50807639Y-48316106D01*
X51005083Y-48172655D01*
X51177655Y-48000083D01*
X51321106Y-47802639D01*
X51431904Y-47585185D01*
X51507321Y-47353076D01*
X51545500Y-47112027D01*
X51545500Y-46867973D01*
X51507321Y-46626924D01*
X51431904Y-46394815D01*
X51321106Y-46177361D01*
X51321104Y-46177358D01*
X51321103Y-46177356D01*
X51244838Y-46072385D01*
X51221358Y-46006578D01*
X51237184Y-45938525D01*
X51287290Y-45889830D01*
X51345156Y-45875500D01*
X51353253Y-45875500D01*
X51353254Y-45875500D01*
X51567097Y-45841630D01*
X51773009Y-45774726D01*
X51965919Y-45676433D01*
X52141078Y-45549172D01*
X52294172Y-45396078D01*
X52421433Y-45220919D01*
X52519726Y-45028009D01*
X52586630Y-44822097D01*
X52620500Y-44608254D01*
X52620500Y-44391779D01*
X54370000Y-44391779D01*
X54370000Y-44608220D01*
X54403857Y-44821981D01*
X54470735Y-45027814D01*
X54470736Y-45027817D01*
X54568996Y-45220660D01*
X54611829Y-45279615D01*
X54611830Y-45279616D01*
X55266119Y-44625326D01*
X55283734Y-44691063D01*
X55348902Y-44803937D01*
X55441063Y-44896098D01*
X55553937Y-44961266D01*
X55619672Y-44978880D01*
X54965382Y-45633168D01*
X55024342Y-45676005D01*
X55217182Y-45774263D01*
X55217185Y-45774264D01*
X55423018Y-45841142D01*
X55636780Y-45875000D01*
X55655208Y-45875000D01*
X55722247Y-45894685D01*
X55768002Y-45947489D01*
X55777946Y-46016647D01*
X55755526Y-46071885D01*
X55678896Y-46177357D01*
X55568097Y-46394812D01*
X55492678Y-46626927D01*
X55461299Y-46825048D01*
X55454500Y-46867973D01*
X55454500Y-47112027D01*
X55492679Y-47353076D01*
X55568096Y-47585185D01*
X55649054Y-47744075D01*
X55678896Y-47802642D01*
X55822339Y-48000076D01*
X55822343Y-48000081D01*
X55994918Y-48172656D01*
X55994923Y-48172660D01*
X56167136Y-48297779D01*
X56192361Y-48316106D01*
X56409815Y-48426904D01*
X56641924Y-48502321D01*
X56882973Y-48540500D01*
X56882974Y-48540500D01*
X57127026Y-48540500D01*
X57127027Y-48540500D01*
X57368076Y-48502321D01*
X57600185Y-48426904D01*
X57817639Y-48316106D01*
X58015083Y-48172655D01*
X58187655Y-48000083D01*
X58331106Y-47802639D01*
X58441904Y-47585185D01*
X58517321Y-47353076D01*
X58555500Y-47112027D01*
X58555500Y-46867973D01*
X58517321Y-46626924D01*
X58441904Y-46394815D01*
X58331106Y-46177361D01*
X58254837Y-46072385D01*
X58187660Y-45979923D01*
X58187656Y-45979918D01*
X58015081Y-45807343D01*
X58015076Y-45807339D01*
X57817642Y-45663896D01*
X57817641Y-45663895D01*
X57817639Y-45663894D01*
X57600185Y-45553096D01*
X57368076Y-45477679D01*
X57368074Y-45477678D01*
X57368072Y-45477678D01*
X57142855Y-45442007D01*
X57127027Y-45439500D01*
X57005371Y-45439500D01*
X56938332Y-45419815D01*
X56892577Y-45367011D01*
X56882633Y-45297853D01*
X56905053Y-45242614D01*
X56921005Y-45220657D01*
X57019263Y-45027817D01*
X57019264Y-45027814D01*
X57086142Y-44821981D01*
X57120000Y-44608220D01*
X57120000Y-44391779D01*
X57086142Y-44178018D01*
X57019264Y-43972185D01*
X57019263Y-43972182D01*
X56921005Y-43779342D01*
X56878168Y-43720383D01*
X56878168Y-43720382D01*
X56223880Y-44374672D01*
X56206266Y-44308937D01*
X56141098Y-44196063D01*
X56048937Y-44103902D01*
X55936063Y-44038734D01*
X55870326Y-44021119D01*
X56524616Y-43366830D01*
X56524615Y-43366829D01*
X56465660Y-43323996D01*
X56272817Y-43225736D01*
X56272814Y-43225735D01*
X56066981Y-43158857D01*
X55853220Y-43125000D01*
X55636780Y-43125000D01*
X55423018Y-43158857D01*
X55217185Y-43225735D01*
X55217182Y-43225736D01*
X55024346Y-43323992D01*
X54965383Y-43366830D01*
X55619673Y-44021119D01*
X55553937Y-44038734D01*
X55441063Y-44103902D01*
X55348902Y-44196063D01*
X55283734Y-44308937D01*
X55266119Y-44374672D01*
X54611830Y-43720383D01*
X54568992Y-43779346D01*
X54470736Y-43972182D01*
X54470735Y-43972185D01*
X54403857Y-44178018D01*
X54370000Y-44391779D01*
X52620500Y-44391779D01*
X52620500Y-44391746D01*
X52586630Y-44177903D01*
X52519726Y-43971991D01*
X52519726Y-43971990D01*
X52457569Y-43850001D01*
X52421433Y-43779081D01*
X52294172Y-43603922D01*
X52141078Y-43450828D01*
X51965919Y-43323567D01*
X51958418Y-43319745D01*
X51773009Y-43225273D01*
X51773006Y-43225272D01*
X51567098Y-43158370D01*
X51460175Y-43141435D01*
X51353254Y-43124500D01*
X51136746Y-43124500D01*
X51129612Y-43125630D01*
X50922901Y-43158370D01*
X50716993Y-43225272D01*
X50716990Y-43225273D01*
X50524080Y-43323567D01*
X50424145Y-43396174D01*
X50348922Y-43450828D01*
X50348920Y-43450830D01*
X50348919Y-43450830D01*
X50195830Y-43603919D01*
X50195830Y-43603920D01*
X50195828Y-43603922D01*
X50141174Y-43679145D01*
X50068567Y-43779080D01*
X49970273Y-43971990D01*
X49970272Y-43971993D01*
X49903370Y-44177901D01*
X49877412Y-44341790D01*
X49869500Y-44391746D01*
X49869500Y-44608254D01*
X49880337Y-44676673D01*
X49903370Y-44822098D01*
X49970272Y-45028006D01*
X49970273Y-45028009D01*
X50068567Y-45220920D01*
X50084329Y-45242613D01*
X50107810Y-45308419D01*
X50091985Y-45376473D01*
X50041881Y-45425169D01*
X49984012Y-45439500D01*
X49872973Y-45439500D01*
X49857145Y-45442007D01*
X49631927Y-45477678D01*
X49399812Y-45553097D01*
X49182357Y-45663896D01*
X48984923Y-45807339D01*
X48984918Y-45807343D01*
X48812343Y-45979918D01*
X48812339Y-45979923D01*
X48668896Y-46177357D01*
X48558097Y-46394812D01*
X48482678Y-46626927D01*
X48451299Y-46825048D01*
X48444500Y-46867973D01*
X38654318Y-46867973D01*
X38657229Y-46865087D01*
X38658394Y-46862291D01*
X38667476Y-46854933D01*
X38684271Y-46838290D01*
X38691096Y-46833569D01*
X38707816Y-46825051D01*
X38879792Y-46700104D01*
X39030104Y-46549792D01*
X39030106Y-46549788D01*
X39030109Y-46549786D01*
X39155048Y-46377820D01*
X39155047Y-46377820D01*
X39155051Y-46377816D01*
X39251557Y-46188412D01*
X39317246Y-45986243D01*
X39350500Y-45776287D01*
X39350500Y-45563713D01*
X39317246Y-45353757D01*
X39251557Y-45151588D01*
X39155051Y-44962184D01*
X39155049Y-44962181D01*
X39155048Y-44962179D01*
X39030109Y-44790213D01*
X38916569Y-44676673D01*
X38883084Y-44615350D01*
X38888068Y-44545658D01*
X38929940Y-44489725D01*
X38960915Y-44472810D01*
X39092331Y-44423796D01*
X39207546Y-44337546D01*
X39293796Y-44222331D01*
X39344091Y-44087483D01*
X39350500Y-44027873D01*
X39350499Y-42499983D01*
X42144500Y-42499983D01*
X42144500Y-43850001D01*
X42144501Y-43850018D01*
X42155000Y-43952796D01*
X42155001Y-43952799D01*
X42203505Y-44099172D01*
X42210186Y-44119334D01*
X42302288Y-44268656D01*
X42426344Y-44392712D01*
X42575666Y-44484814D01*
X42742203Y-44539999D01*
X42844991Y-44550500D01*
X43645008Y-44550499D01*
X43645016Y-44550498D01*
X43645019Y-44550498D01*
X43701302Y-44544748D01*
X43747797Y-44539999D01*
X43914334Y-44484814D01*
X44063656Y-44392712D01*
X44187712Y-44268656D01*
X44227581Y-44204016D01*
X44279525Y-44157294D01*
X44348488Y-44146071D01*
X44412570Y-44173914D01*
X44420799Y-44181434D01*
X44528397Y-44289032D01*
X44668475Y-44390804D01*
X44822744Y-44469408D01*
X44987415Y-44522914D01*
X44987414Y-44522914D01*
X44994999Y-44524115D01*
X44995000Y-44524114D01*
X44995000Y-43455330D01*
X45014745Y-43475075D01*
X45100255Y-43524444D01*
X45195630Y-43550000D01*
X45294370Y-43550000D01*
X45389745Y-43524444D01*
X45475255Y-43475075D01*
X45495000Y-43455330D01*
X45495000Y-44524115D01*
X45502584Y-44522914D01*
X45667255Y-44469408D01*
X45821524Y-44390804D01*
X45961602Y-44289032D01*
X46084032Y-44166602D01*
X46185804Y-44026524D01*
X46264408Y-43872257D01*
X46317914Y-43707584D01*
X46345000Y-43536571D01*
X46345000Y-43425000D01*
X45525330Y-43425000D01*
X45545075Y-43405255D01*
X45594444Y-43319745D01*
X45620000Y-43224370D01*
X45620000Y-43125630D01*
X45594444Y-43030255D01*
X45545075Y-42944745D01*
X45525330Y-42925000D01*
X46345000Y-42925000D01*
X46345000Y-42813428D01*
X46317914Y-42642415D01*
X46264408Y-42477742D01*
X46185804Y-42323475D01*
X46084032Y-42183397D01*
X45961602Y-42060967D01*
X45821524Y-41959195D01*
X45667257Y-41880591D01*
X45502589Y-41827087D01*
X45502581Y-41827085D01*
X45495000Y-41825884D01*
X45495000Y-42894670D01*
X45475255Y-42874925D01*
X45389745Y-42825556D01*
X45294370Y-42800000D01*
X45195630Y-42800000D01*
X45100255Y-42825556D01*
X45014745Y-42874925D01*
X44995000Y-42894670D01*
X44995000Y-41825884D01*
X44994999Y-41825884D01*
X44987418Y-41827085D01*
X44987410Y-41827087D01*
X44822742Y-41880591D01*
X44668475Y-41959195D01*
X44528401Y-42060964D01*
X44420799Y-42168566D01*
X44359476Y-42202050D01*
X44289784Y-42197066D01*
X44233851Y-42155194D01*
X44227585Y-42145988D01*
X44187712Y-42081344D01*
X44063656Y-41957288D01*
X43950438Y-41887455D01*
X43914336Y-41865187D01*
X43914331Y-41865185D01*
X43896088Y-41859140D01*
X43747797Y-41810001D01*
X43747795Y-41810000D01*
X43645010Y-41799500D01*
X42844998Y-41799500D01*
X42844980Y-41799501D01*
X42742203Y-41810000D01*
X42742200Y-41810001D01*
X42575668Y-41865185D01*
X42575663Y-41865187D01*
X42426342Y-41957289D01*
X42302289Y-42081342D01*
X42210187Y-42230663D01*
X42210185Y-42230668D01*
X42209701Y-42232129D01*
X42155001Y-42397203D01*
X42155001Y-42397204D01*
X42155000Y-42397204D01*
X42144500Y-42499983D01*
X39350499Y-42499983D01*
X39350499Y-42232128D01*
X39344091Y-42172517D01*
X39342617Y-42168566D01*
X39293797Y-42037671D01*
X39293793Y-42037664D01*
X39207547Y-41922455D01*
X39207544Y-41922452D01*
X39092335Y-41836206D01*
X39092328Y-41836202D01*
X38957482Y-41785908D01*
X38957483Y-41785908D01*
X38897883Y-41779501D01*
X38897881Y-41779500D01*
X38897873Y-41779500D01*
X38897864Y-41779500D01*
X37102129Y-41779500D01*
X37102123Y-41779501D01*
X37042516Y-41785908D01*
X36907671Y-41836202D01*
X36907669Y-41836204D01*
X36823811Y-41898980D01*
X36758347Y-41923397D01*
X36690074Y-41908545D01*
X36640668Y-41859140D01*
X36625500Y-41799713D01*
X36625500Y-29026577D01*
X36899500Y-29026577D01*
X36899500Y-29223422D01*
X36930290Y-29417826D01*
X36991117Y-29605029D01*
X37055425Y-29731239D01*
X37080476Y-29780405D01*
X37196172Y-29939646D01*
X37335354Y-30078828D01*
X37494595Y-30194524D01*
X37577455Y-30236743D01*
X37669970Y-30283882D01*
X37669972Y-30283882D01*
X37669975Y-30283884D01*
X37770317Y-30316487D01*
X37857173Y-30344709D01*
X38051578Y-30375500D01*
X38051583Y-30375500D01*
X39248422Y-30375500D01*
X39442826Y-30344709D01*
X39630025Y-30283884D01*
X39805405Y-30194524D01*
X39964646Y-30078828D01*
X40103828Y-29939646D01*
X40219524Y-29780405D01*
X40308884Y-29605025D01*
X40369709Y-29417826D01*
X40386991Y-29308713D01*
X40400500Y-29223422D01*
X40400500Y-29026577D01*
X40369709Y-28832173D01*
X40308882Y-28644970D01*
X40219523Y-28469594D01*
X40103828Y-28310354D01*
X40061301Y-28267827D01*
X40027816Y-28206504D01*
X40032800Y-28136812D01*
X40061301Y-28092465D01*
X40114443Y-28039322D01*
X40114444Y-28039321D01*
X40230095Y-27880143D01*
X40319418Y-27704837D01*
X40380218Y-27517716D01*
X40386984Y-27475000D01*
X39594012Y-27475000D01*
X39626925Y-27417993D01*
X39661000Y-27290826D01*
X39661000Y-27159174D01*
X39626925Y-27032007D01*
X39594012Y-26975000D01*
X40386984Y-26975000D01*
X40380218Y-26932283D01*
X40319418Y-26745162D01*
X40230095Y-26569856D01*
X40114444Y-26410678D01*
X39975321Y-26271555D01*
X39816143Y-26155904D01*
X39640835Y-26066581D01*
X39453705Y-26005778D01*
X39259382Y-25975000D01*
X38911000Y-25975000D01*
X38911000Y-26725000D01*
X38411000Y-26725000D01*
X38411000Y-25975000D01*
X38062618Y-25975000D01*
X37868294Y-26005778D01*
X37681164Y-26066581D01*
X37505856Y-26155904D01*
X37346678Y-26271555D01*
X37207555Y-26410678D01*
X37091904Y-26569856D01*
X37002581Y-26745162D01*
X36941781Y-26932283D01*
X36935016Y-26975000D01*
X37727988Y-26975000D01*
X37695075Y-27032007D01*
X37661000Y-27159174D01*
X37661000Y-27290826D01*
X37695075Y-27417993D01*
X37727988Y-27475000D01*
X36935016Y-27475000D01*
X36941781Y-27517716D01*
X37002581Y-27704837D01*
X37091904Y-27880143D01*
X37207555Y-28039321D01*
X37249698Y-28081464D01*
X37283183Y-28142787D01*
X37278199Y-28212479D01*
X37249700Y-28256825D01*
X37196172Y-28310354D01*
X37080476Y-28469594D01*
X36991117Y-28644970D01*
X36930290Y-28832173D01*
X36899500Y-29026577D01*
X36625500Y-29026577D01*
X36625500Y-24533394D01*
X36624426Y-24527993D01*
X36601463Y-24412546D01*
X36601461Y-24412541D01*
X36583505Y-24369191D01*
X36583501Y-24369183D01*
X36581932Y-24365395D01*
X36554312Y-24298713D01*
X36537256Y-24273188D01*
X36485858Y-24196265D01*
X36485856Y-24196262D01*
X36395637Y-24106043D01*
X36395606Y-24106014D01*
X35575793Y-23286201D01*
X35542308Y-23224878D01*
X35541887Y-23222862D01*
X35519737Y-23111501D01*
X35474606Y-23002544D01*
X35459397Y-22965825D01*
X35459390Y-22965812D01*
X35371789Y-22834709D01*
X35371786Y-22834705D01*
X35260292Y-22723211D01*
X35260288Y-22723208D01*
X35129185Y-22635607D01*
X35129172Y-22635600D01*
X34983501Y-22575262D01*
X34983489Y-22575259D01*
X34828845Y-22544498D01*
X34828842Y-22544498D01*
X34671158Y-22544498D01*
X34671155Y-22544498D01*
X34516510Y-22575259D01*
X34516498Y-22575262D01*
X34370827Y-22635600D01*
X34370814Y-22635607D01*
X34239711Y-22723208D01*
X34239707Y-22723211D01*
X34128213Y-22834705D01*
X34128210Y-22834709D01*
X34040609Y-22965812D01*
X34040602Y-22965825D01*
X33980264Y-23111496D01*
X33980261Y-23111508D01*
X33949500Y-23266151D01*
X29510294Y-23266151D01*
X29594627Y-23181818D01*
X29616498Y-23169875D01*
X29636069Y-23154443D01*
X29649528Y-23151839D01*
X29655950Y-23148333D01*
X29670357Y-23146076D01*
X29676315Y-23145499D01*
X29692872Y-23145499D01*
X29752483Y-23139091D01*
X29887331Y-23088796D01*
X30002546Y-23002546D01*
X30088796Y-22887331D01*
X30139091Y-22752483D01*
X30145500Y-22692873D01*
X30145499Y-20897128D01*
X30139091Y-20837517D01*
X30088796Y-20702669D01*
X30088795Y-20702668D01*
X30088793Y-20702664D01*
X30002547Y-20587455D01*
X30002544Y-20587452D01*
X29887335Y-20501206D01*
X29887328Y-20501202D01*
X29752482Y-20450908D01*
X29752483Y-20450908D01*
X29692883Y-20444501D01*
X29692881Y-20444500D01*
X29692873Y-20444500D01*
X29692864Y-20444500D01*
X27897129Y-20444500D01*
X27897123Y-20444501D01*
X27837516Y-20450908D01*
X27702671Y-20501202D01*
X27702664Y-20501206D01*
X27587455Y-20587452D01*
X27587452Y-20587455D01*
X27501206Y-20702664D01*
X27501202Y-20702671D01*
X27450908Y-20837517D01*
X27444501Y-20897116D01*
X27444501Y-20897123D01*
X27444500Y-20897135D01*
X19500500Y-20897135D01*
X19500500Y-17124500D01*
X19520185Y-17057461D01*
X19572989Y-17011706D01*
X19624500Y-17000500D01*
X60875500Y-17000500D01*
X60942539Y-17020185D01*
G37*
%TD.AperFunction*%
%TD*%
M02*
