%TF.GenerationSoftware,KiCad,Pcbnew,10.0.3*%
%TF.CreationDate,2026-06-18T17:59:37-04:00*%
%TF.ProjectId,Bitlace_Pendant,4269746c-6163-4655-9f50-656e64616e74,rev?*%
%TF.SameCoordinates,Original*%
%TF.FileFunction,Copper,L1,Top*%
%TF.FilePolarity,Positive*%
%FSLAX46Y46*%
G04 Gerber Fmt 4.6, Leading zero omitted, Abs format (unit mm)*
G04 Created by KiCad (PCBNEW 10.0.3) date 2026-06-18 17:59:37*
%MOMM*%
%LPD*%
G01*
G04 APERTURE LIST*
G04 Aperture macros list*
%AMRoundRect*
0 Rectangle with rounded corners*
0 $1 Rounding radius*
0 $2 $3 $4 $5 $6 $7 $8 $9 X,Y pos of 4 corners*
0 Add a 4 corners polygon primitive as box body*
4,1,4,$2,$3,$4,$5,$6,$7,$8,$9,$2,$3,0*
0 Add four circle primitives for the rounded corners*
1,1,$1+$1,$2,$3*
1,1,$1+$1,$4,$5*
1,1,$1+$1,$6,$7*
1,1,$1+$1,$8,$9*
0 Add four rect primitives between the rounded corners*
20,1,$1+$1,$2,$3,$4,$5,0*
20,1,$1+$1,$4,$5,$6,$7,0*
20,1,$1+$1,$6,$7,$8,$9,0*
20,1,$1+$1,$8,$9,$2,$3,0*%
G04 Aperture macros list end*
%TA.AperFunction,SMDPad,CuDef*%
%ADD10R,1.000000X3.150000*%
%TD*%
%TA.AperFunction,SMDPad,CuDef*%
%ADD11R,3.150000X1.000000*%
%TD*%
%TA.AperFunction,ComponentPad*%
%ADD12O,2.500000X1.500000*%
%TD*%
%TA.AperFunction,ComponentPad*%
%ADD13C,2.100000*%
%TD*%
%TA.AperFunction,ComponentPad*%
%ADD14C,1.750000*%
%TD*%
%TA.AperFunction,ComponentPad*%
%ADD15R,1.700000X1.700000*%
%TD*%
%TA.AperFunction,ComponentPad*%
%ADD16C,1.700000*%
%TD*%
%TA.AperFunction,ComponentPad*%
%ADD17RoundRect,0.250000X-0.350000X-0.625000X0.350000X-0.625000X0.350000X0.625000X-0.350000X0.625000X0*%
%TD*%
%TA.AperFunction,ComponentPad*%
%ADD18O,1.200000X1.750000*%
%TD*%
%TA.AperFunction,ViaPad*%
%ADD19C,0.600000*%
%TD*%
%TA.AperFunction,Conductor*%
%ADD20C,0.250000*%
%TD*%
G04 APERTURE END LIST*
D10*
%TO.P,U1,33,GND_33*%
%TO.N,GND*%
X44090000Y-38725000D03*
%TO.P,U1,32,BAT_32*%
%TO.N,Net-(J2-Pin_1)*%
X41090000Y-38725000D03*
D11*
%TO.P,U1,1,GPIO2_A0_D0_1*%
%TO.N,Net-(J3-Pin_2)*%
X34990000Y-21805000D03*
%TO.P,U1,2,GPIO3_A1_D1_2*%
%TO.N,unconnected-(U1-GPIO3_A1_D1-Pad2)*%
X34990000Y-24345000D03*
%TO.P,U1,3,GPIO4_A2_D2_3*%
%TO.N,unconnected-(U1-GPIO4_A2_D2-Pad3)*%
X34990000Y-26885000D03*
%TO.P,U1,4,GPIO5_A3_D3_4*%
%TO.N,unconnected-(U1-GPIO5_A3_D3-Pad4)*%
X34990000Y-29425000D03*
%TO.P,U1,5,GPIO6_D4_SDA_5*%
%TO.N,Net-(J4-Pin_4)*%
X34990000Y-31965000D03*
%TO.P,U1,6,GPIO7_D5_SCL_6*%
%TO.N,Net-(J4-Pin_3)*%
X34990000Y-34505000D03*
%TO.P,U1,7,GPIO21_D6_TX_7*%
%TO.N,Net-(U1-GPIO21_D6_TX)*%
X34990000Y-37045000D03*
%TO.P,U1,8,GPIO20_D7_RX_8*%
%TO.N,Net-(J1-Pin_4)*%
X51015000Y-37045000D03*
%TO.P,U1,9,GPIO8_D8_SCK_9*%
%TO.N,Net-(J1-Pin_5)*%
X51015000Y-34505000D03*
%TO.P,U1,10,GPIO9_D9_MISO_10*%
%TO.N,unconnected-(U1-GPIO9_D9_MISO-Pad10)*%
X51015000Y-31965000D03*
%TO.P,U1,11,GPIO10_D10_MOSI_11*%
%TO.N,Net-(J1-Pin_3)*%
X51015000Y-29425000D03*
%TO.P,U1,12,3V3_12*%
%TO.N,Net-(J4-Pin_1)*%
X51015000Y-26885000D03*
%TO.P,U1,13,GND_13*%
%TO.N,GND*%
X51015000Y-24345000D03*
%TO.P,U1,14,VBUS_14*%
%TO.N,Net-(J1-Pin_1)*%
X51015000Y-21805000D03*
D12*
%TO.P,U1,B+*%
%TO.N,N/C*%
X38650000Y-29125000D03*
%TO.P,U1,B-*%
%TO.N,GND*%
X38661000Y-27225000D03*
%TD*%
D13*
%TO.P,SW1,*%
%TO.N,*%
X49995000Y-46990000D03*
X57005000Y-46990000D03*
D14*
%TO.P,SW1,1,1_1*%
%TO.N,Net-(U1-GPIO21_D6_TX)*%
X51245000Y-44500000D03*
%TO.P,SW1,2,2_2*%
%TO.N,GND*%
X55745000Y-44500000D03*
%TD*%
D15*
%TO.P,J4,1,Pin_1_1*%
%TO.N,Net-(J4-Pin_1)*%
X28795000Y-21795000D03*
D16*
%TO.P,J4,2,Pin_2_2*%
%TO.N,GND*%
X28795000Y-24335000D03*
%TO.P,J4,3,Pin_3_3*%
%TO.N,Net-(J4-Pin_3)*%
X28795000Y-26875000D03*
%TO.P,J4,4,Pin_4_4*%
%TO.N,Net-(J4-Pin_4)*%
X28795000Y-29415000D03*
%TO.P,J4,5,Pin_5_5*%
%TO.N,unconnected-(J4-Pin_5-Pad5)*%
X28795000Y-31955000D03*
%TO.P,J4,6,Pin_6_6*%
%TO.N,unconnected-(J4-Pin_6-Pad6)*%
X28795000Y-34495000D03*
%TO.P,J4,7,Pin_7_7*%
%TO.N,unconnected-(J4-Pin_7-Pad7)*%
X28795000Y-37035000D03*
%TO.P,J4,8,Pin_8_8*%
%TO.N,unconnected-(J4-Pin_8-Pad8)*%
X28795000Y-39575000D03*
%TD*%
D15*
%TO.P,J3,1,Pin_1_1*%
%TO.N,Net-(J1-Pin_1)*%
X38000000Y-43130000D03*
D16*
%TO.P,J3,2,Pin_2_2*%
%TO.N,Net-(J3-Pin_2)*%
X38000000Y-45670000D03*
%TO.P,J3,3,Pin_3_3*%
%TO.N,GND*%
X38000000Y-48210000D03*
%TO.P,J3,4*%
%TO.N,N/C*%
X38000000Y-50750000D03*
%TO.P,J3,5*%
X38000000Y-53290000D03*
%TD*%
D17*
%TO.P,J2,1,Pin_1_1*%
%TO.N,Net-(J2-Pin_1)*%
X43245000Y-43175000D03*
D18*
%TO.P,J2,2,Pin_2_2*%
%TO.N,GND*%
X45245000Y-43175000D03*
%TD*%
D15*
%TO.P,J1,1,Pin_1_1*%
%TO.N,Net-(J1-Pin_1)*%
X33385000Y-43095000D03*
D16*
%TO.P,J1,2,Pin_2_2*%
%TO.N,GND*%
X33385000Y-45635000D03*
%TO.P,J1,3,Pin_3_3*%
%TO.N,Net-(J1-Pin_3)*%
X33385000Y-48175000D03*
%TO.P,J1,4,Pin_4_4*%
%TO.N,Net-(J1-Pin_4)*%
X33385000Y-50715000D03*
%TO.P,J1,5,Pin_5_5*%
%TO.N,Net-(J1-Pin_5)*%
X33385000Y-53255000D03*
%TD*%
D19*
%TO.N,Net-(J3-Pin_2)*%
X34750000Y-23344998D03*
X36000000Y-43720000D03*
%TD*%
%TO.N,Net-(J3-Pin_2)*%
D20*
X34990000Y-23104998D02*
X34750000Y-23344998D01*
X34990000Y-21805000D02*
X34990000Y-23104998D01*
X34750000Y-22045000D02*
X34990000Y-21805000D01*
X36050000Y-43720000D02*
X36000000Y-43720000D01*
X38000000Y-45670000D02*
X36050000Y-43720000D01*
%TO.N,Net-(J4-Pin_3)*%
X34805000Y-34505000D02*
X34990000Y-34505000D01*
X34430000Y-34130000D02*
X34805000Y-34505000D01*
X35890000Y-32790000D02*
X35890000Y-33602792D01*
X35362792Y-34130000D02*
X34430000Y-34130000D01*
X36890000Y-32790000D02*
X35890000Y-32790000D01*
X36890000Y-31140000D02*
X36890000Y-32790000D01*
X33090000Y-31140000D02*
X36890000Y-31140000D01*
X35890000Y-33602792D02*
X35362792Y-34130000D01*
X28795000Y-26875000D02*
X33090000Y-31170000D01*
X33090000Y-31170000D02*
X33090000Y-31140000D01*
%TO.N,Net-(J1-Pin_5)*%
X49115000Y-36405000D02*
X51015000Y-34505000D01*
X40503148Y-49500000D02*
X49115000Y-40888148D01*
X49115000Y-40888148D02*
X49115000Y-36405000D01*
X37140000Y-49500000D02*
X40503148Y-49500000D01*
X33385000Y-53255000D02*
X37140000Y-49500000D01*
%TO.N,Net-(J1-Pin_4)*%
X51015000Y-39624544D02*
X51015000Y-37045000D01*
X38639544Y-52000000D02*
X51015000Y-39624544D01*
X38250000Y-52000000D02*
X38639544Y-52000000D01*
X37703300Y-52115000D02*
X38135000Y-52115000D01*
X37483299Y-51895000D02*
X37703300Y-52115000D01*
X34948299Y-54430000D02*
X37483299Y-51895000D01*
X32898299Y-54430000D02*
X34948299Y-54430000D01*
X32210000Y-51890000D02*
X32210000Y-53741701D01*
X32210000Y-53741701D02*
X32898299Y-54430000D01*
X33385000Y-50715000D02*
X32210000Y-51890000D01*
X38135000Y-52115000D02*
X38250000Y-52000000D01*
%TO.N,GND*%
X37056000Y-25620000D02*
X38661000Y-27225000D01*
X28795000Y-24335000D02*
X30080000Y-25620000D01*
X30080000Y-25620000D02*
X37056000Y-25620000D01*
X44915000Y-55330000D02*
X55745000Y-44500000D01*
X27620000Y-25510000D02*
X27620000Y-50424493D01*
X28795000Y-24335000D02*
X27620000Y-25510000D01*
X27620000Y-50424493D02*
X32525507Y-55330000D01*
X32525507Y-55330000D02*
X44915000Y-55330000D01*
X52915000Y-20980000D02*
X53365000Y-21430000D01*
X51015000Y-24345000D02*
X49115000Y-22445000D01*
X49115000Y-22445000D02*
X49115000Y-20980000D01*
X49115000Y-20980000D02*
X52915000Y-20980000D01*
%TO.N,Net-(J1-Pin_3)*%
X31310000Y-38000000D02*
X31310000Y-46100000D01*
X33090000Y-36220000D02*
X31310000Y-38000000D01*
X41000000Y-32110000D02*
X36890000Y-36220000D01*
X36890000Y-36220000D02*
X33090000Y-36220000D01*
X31310000Y-46100000D02*
X33385000Y-48175000D01*
X41000000Y-25620000D02*
X41000000Y-32110000D01*
%TO.N,Net-(J1-Pin_1)*%
X38130000Y-43250000D02*
X38500000Y-43250000D01*
X37975000Y-43095000D02*
X38130000Y-43250000D01*
%TO.N,GND*%
X44090000Y-36165000D02*
X44090000Y-38725000D01*
X49555000Y-30700000D02*
X44090000Y-36165000D01*
X53101396Y-30700000D02*
X49555000Y-30700000D01*
X53365000Y-30436396D02*
X53101396Y-30700000D01*
X53365000Y-21430000D02*
X53365000Y-30436396D01*
X52555000Y-20620000D02*
X53365000Y-21430000D01*
X27620000Y-20620000D02*
X52555000Y-20620000D01*
X27620000Y-23160000D02*
X27620000Y-20620000D01*
X28795000Y-24335000D02*
X27620000Y-23160000D01*
%TO.N,Net-(J1-Pin_1)*%
X37975000Y-43095000D02*
X33385000Y-43095000D01*
X52915000Y-23705000D02*
X51015000Y-21805000D01*
X52915000Y-30250000D02*
X52915000Y-23705000D01*
X37975000Y-38275000D02*
X46000000Y-30250000D01*
X37975000Y-43095000D02*
X37975000Y-38275000D01*
X46000000Y-30250000D02*
X52915000Y-30250000D01*
%TO.N,Net-(U1-GPIO21_D6_TX)*%
X50540456Y-44500000D02*
X51245000Y-44500000D01*
X40160456Y-54880000D02*
X50540456Y-44500000D01*
X32711903Y-54880000D02*
X40160456Y-54880000D01*
X31760000Y-53928097D02*
X32711903Y-54880000D01*
X31760000Y-50678299D02*
X31760000Y-53928097D01*
X32898299Y-49540000D02*
X31760000Y-50678299D01*
X34560000Y-48851701D02*
X33871701Y-49540000D01*
X34560000Y-47498299D02*
X34560000Y-48851701D01*
X33871701Y-46810000D02*
X34560000Y-47498299D01*
X32898299Y-46810000D02*
X33871701Y-46810000D01*
X32210000Y-46121701D02*
X32898299Y-46810000D01*
X33871701Y-49540000D02*
X32898299Y-49540000D01*
X32210000Y-39825000D02*
X32210000Y-46121701D01*
X34990000Y-37045000D02*
X32210000Y-39825000D01*
%TO.N,Net-(J4-Pin_4)*%
X35440000Y-32415000D02*
X34990000Y-31965000D01*
X33060000Y-33680000D02*
X35176396Y-33680000D01*
X35176396Y-33680000D02*
X35440000Y-33416396D01*
X28795000Y-29415000D02*
X33060000Y-33680000D01*
X35440000Y-33416396D02*
X35440000Y-32415000D01*
%TO.N,Net-(J1-Pin_3)*%
X47210000Y-25620000D02*
X41000000Y-25620000D01*
X51015000Y-29425000D02*
X47210000Y-25620000D01*
%TO.N,GND*%
X45245000Y-37550000D02*
X45245000Y-43175000D01*
X55745000Y-36510000D02*
X52915000Y-33680000D01*
X52915000Y-33680000D02*
X49115000Y-33680000D01*
X49115000Y-33680000D02*
X45245000Y-37550000D01*
X55745000Y-44500000D02*
X55745000Y-36510000D01*
X37975000Y-48175000D02*
X40040100Y-48175000D01*
X44170000Y-44045100D02*
X44170000Y-42100000D01*
X44090000Y-42020000D02*
X44170000Y-42100000D01*
X40040100Y-48175000D02*
X44170000Y-44045100D01*
X35925000Y-48175000D02*
X37975000Y-48175000D01*
X33385000Y-45635000D02*
X35925000Y-48175000D01*
%TO.N,Net-(J4-Pin_1)*%
X49300000Y-25170000D02*
X51015000Y-26885000D01*
X32170000Y-25170000D02*
X49300000Y-25170000D01*
X28795000Y-21795000D02*
X32170000Y-25170000D01*
%TO.N,Net-(J2-Pin_1)*%
X41090000Y-41020000D02*
X43245000Y-43175000D01*
X41090000Y-38725000D02*
X41090000Y-41020000D01*
%TO.N,GND*%
X44170000Y-42100000D02*
X45245000Y-43175000D01*
X44090000Y-38725000D02*
X44090000Y-42020000D01*
%TO.N,Net-(J2-Pin_1)*%
X43250000Y-43170000D02*
X43250000Y-43000000D01*
%TO.N,GND*%
X38661000Y-27225000D02*
X38770280Y-27225000D01*
%TD*%
%TA.AperFunction,Conductor*%
%TO.N,GND*%
G36*
X35149191Y-43740185D02*
G01*
X35194946Y-43792989D01*
X35203769Y-43820308D01*
X35230261Y-43953491D01*
X35230264Y-43953501D01*
X35290602Y-44099172D01*
X35290609Y-44099185D01*
X35378210Y-44230288D01*
X35378213Y-44230292D01*
X35489707Y-44341786D01*
X35489711Y-44341789D01*
X35620814Y-44429390D01*
X35620827Y-44429397D01*
X35766474Y-44489725D01*
X35766503Y-44489737D01*
X35828535Y-44502076D01*
X35921145Y-44520498D01*
X35921150Y-44520498D01*
X35921158Y-44520500D01*
X35921165Y-44520500D01*
X35926639Y-44521039D01*
X35991428Y-44547197D01*
X36002172Y-44556762D01*
X36657571Y-45212162D01*
X36691056Y-45273485D01*
X36687821Y-45338160D01*
X36682754Y-45353753D01*
X36659872Y-45498228D01*
X36649500Y-45563713D01*
X36649500Y-45776287D01*
X36659534Y-45839644D01*
X36677192Y-45951130D01*
X36682754Y-45986243D01*
X36744852Y-46177361D01*
X36748444Y-46188414D01*
X36844951Y-46377820D01*
X36969890Y-46549786D01*
X37120213Y-46700109D01*
X37292179Y-46825048D01*
X37292181Y-46825049D01*
X37292184Y-46825051D01*
X37301493Y-46829794D01*
X37352290Y-46877766D01*
X37369087Y-46945587D01*
X37346552Y-47011722D01*
X37301505Y-47050760D01*
X37292446Y-47055376D01*
X37292440Y-47055380D01*
X37238282Y-47094727D01*
X37238282Y-47094728D01*
X37870591Y-47727037D01*
X37807007Y-47744075D01*
X37692993Y-47809901D01*
X37599901Y-47902993D01*
X37534075Y-48017007D01*
X37517037Y-48080591D01*
X36884728Y-47448282D01*
X36884727Y-47448282D01*
X36845380Y-47502439D01*
X36748904Y-47691782D01*
X36683242Y-47893869D01*
X36683242Y-47893872D01*
X36650000Y-48103753D01*
X36650000Y-48316246D01*
X36683242Y-48526127D01*
X36683242Y-48526130D01*
X36748905Y-48728220D01*
X36748907Y-48728224D01*
X36805623Y-48839534D01*
X36818520Y-48908203D01*
X36792244Y-48972943D01*
X36778852Y-48987306D01*
X36771876Y-48993689D01*
X36741267Y-49014142D01*
X36654142Y-49101267D01*
X36654139Y-49101270D01*
X36652211Y-49103197D01*
X36652200Y-49103208D01*
X34947181Y-50808228D01*
X34885858Y-50841713D01*
X34816166Y-50836729D01*
X34760233Y-50794857D01*
X34735816Y-50729393D01*
X34735500Y-50720547D01*
X34735500Y-50608713D01*
X34702246Y-50398757D01*
X34636557Y-50196588D01*
X34540051Y-50007184D01*
X34496699Y-49947514D01*
X34473221Y-49881710D01*
X34489047Y-49813656D01*
X34509334Y-49786955D01*
X34958729Y-49337561D01*
X34958733Y-49337559D01*
X35045858Y-49250434D01*
X35114311Y-49147987D01*
X35114312Y-49147986D01*
X35114313Y-49147983D01*
X35114315Y-49147980D01*
X35133663Y-49101267D01*
X35161463Y-49034152D01*
X35185500Y-48913308D01*
X35185500Y-48790094D01*
X35185500Y-47436693D01*
X35161463Y-47315847D01*
X35117095Y-47208733D01*
X35114312Y-47202014D01*
X35114309Y-47202009D01*
X35114309Y-47202008D01*
X35099843Y-47180360D01*
X35099841Y-47180358D01*
X35095927Y-47174500D01*
X35045858Y-47099566D01*
X34958733Y-47012441D01*
X34958729Y-47012438D01*
X34508980Y-46562689D01*
X34475495Y-46501366D01*
X34480479Y-46431674D01*
X34496343Y-46402122D01*
X34539622Y-46342552D01*
X34539626Y-46342546D01*
X34636095Y-46153217D01*
X34701757Y-45951130D01*
X34701757Y-45951127D01*
X34735000Y-45741246D01*
X34735000Y-45528753D01*
X34701757Y-45318872D01*
X34701757Y-45318869D01*
X34636095Y-45116782D01*
X34539624Y-44927449D01*
X34500270Y-44873282D01*
X34500269Y-44873282D01*
X33867962Y-45505589D01*
X33850925Y-45442007D01*
X33785099Y-45327993D01*
X33692007Y-45234901D01*
X33577993Y-45169075D01*
X33514407Y-45152036D01*
X34184627Y-44481818D01*
X34245950Y-44448333D01*
X34272308Y-44445499D01*
X34282871Y-44445499D01*
X34282872Y-44445499D01*
X34342483Y-44439091D01*
X34477331Y-44388796D01*
X34592546Y-44302546D01*
X34678796Y-44187331D01*
X34729091Y-44052483D01*
X34735500Y-43992873D01*
X34735500Y-43844500D01*
X34738050Y-43835814D01*
X34736762Y-43826853D01*
X34747740Y-43802812D01*
X34755185Y-43777461D01*
X34762025Y-43771533D01*
X34765787Y-43763297D01*
X34788021Y-43749007D01*
X34807989Y-43731706D01*
X34818503Y-43729418D01*
X34824565Y-43725523D01*
X34859500Y-43720500D01*
X35082152Y-43720500D01*
X35149191Y-43740185D01*
G37*
%TD.AperFunction*%
%TA.AperFunction,Conductor*%
G36*
X40008834Y-37228269D02*
G01*
X40064767Y-37270141D01*
X40089184Y-37335605D01*
X40089500Y-37344451D01*
X40089500Y-40347870D01*
X40089501Y-40347876D01*
X40095908Y-40407483D01*
X40146202Y-40542328D01*
X40146206Y-40542335D01*
X40232452Y-40657544D01*
X40232455Y-40657547D01*
X40347664Y-40743793D01*
X40347669Y-40743796D01*
X40383832Y-40757284D01*
X40439766Y-40799154D01*
X40464184Y-40864618D01*
X40464500Y-40873466D01*
X40464500Y-41081611D01*
X40488535Y-41202444D01*
X40488540Y-41202461D01*
X40535685Y-41316280D01*
X40535687Y-41316283D01*
X40535688Y-41316286D01*
X40569915Y-41367509D01*
X40604142Y-41418733D01*
X40691267Y-41505858D01*
X40691270Y-41505860D01*
X40698554Y-41513144D01*
X42108181Y-42922771D01*
X42141666Y-42984094D01*
X42144500Y-43010452D01*
X42144500Y-43850001D01*
X42144501Y-43850019D01*
X42155000Y-43952796D01*
X42155001Y-43952799D01*
X42203505Y-44099172D01*
X42210186Y-44119334D01*
X42302288Y-44268656D01*
X42426344Y-44392712D01*
X42575666Y-44484814D01*
X42742203Y-44539999D01*
X42844991Y-44550500D01*
X43645008Y-44550499D01*
X43645016Y-44550498D01*
X43645019Y-44550498D01*
X43701302Y-44544748D01*
X43747797Y-44539999D01*
X43914334Y-44484814D01*
X44063656Y-44392712D01*
X44187712Y-44268656D01*
X44227581Y-44204016D01*
X44242542Y-44190559D01*
X44253752Y-44173841D01*
X44267988Y-44167670D01*
X44279525Y-44157294D01*
X44299392Y-44154060D01*
X44317860Y-44146057D01*
X44333172Y-44148563D01*
X44348488Y-44146071D01*
X44366947Y-44154091D01*
X44386812Y-44157343D01*
X44406420Y-44171242D01*
X44412570Y-44173914D01*
X44416127Y-44176998D01*
X44595474Y-44338612D01*
X44610506Y-44363034D01*
X44628016Y-44385740D01*
X44628589Y-44392410D01*
X44632099Y-44398113D01*
X44631541Y-44426782D01*
X44633996Y-44455353D01*
X44630871Y-44461275D01*
X44630741Y-44467970D01*
X44614769Y-44491790D01*
X44601390Y-44517148D01*
X44600146Y-44518410D01*
X40280377Y-48838181D01*
X40219054Y-48871666D01*
X40192696Y-48874500D01*
X39374237Y-48874500D01*
X39307198Y-48854815D01*
X39261443Y-48802011D01*
X39251499Y-48732853D01*
X39256306Y-48712182D01*
X39316757Y-48526130D01*
X39316757Y-48526127D01*
X39350000Y-48316246D01*
X39350000Y-48103753D01*
X39316757Y-47893872D01*
X39316757Y-47893869D01*
X39251095Y-47691782D01*
X39154624Y-47502449D01*
X39115270Y-47448282D01*
X39115269Y-47448282D01*
X38482962Y-48080589D01*
X38465925Y-48017007D01*
X38400099Y-47902993D01*
X38307007Y-47809901D01*
X38192993Y-47744075D01*
X38129409Y-47727037D01*
X38761716Y-47094728D01*
X38707547Y-47055373D01*
X38707547Y-47055372D01*
X38698500Y-47050763D01*
X38647706Y-47002788D01*
X38630912Y-46934966D01*
X38653451Y-46868832D01*
X38698508Y-46829793D01*
X38707816Y-46825051D01*
X38787007Y-46767515D01*
X38879786Y-46700109D01*
X38879788Y-46700106D01*
X38879792Y-46700104D01*
X39030104Y-46549792D01*
X39030106Y-46549788D01*
X39030109Y-46549786D01*
X39155048Y-46377820D01*
X39155047Y-46377820D01*
X39155051Y-46377816D01*
X39251557Y-46188412D01*
X39317246Y-45986243D01*
X39350500Y-45776287D01*
X39350500Y-45563713D01*
X39317246Y-45353757D01*
X39251557Y-45151588D01*
X39155051Y-44962184D01*
X39155049Y-44962181D01*
X39155048Y-44962179D01*
X39030109Y-44790213D01*
X38916569Y-44676673D01*
X38883084Y-44615350D01*
X38888068Y-44545658D01*
X38929940Y-44489725D01*
X38960915Y-44472810D01*
X39092331Y-44423796D01*
X39207546Y-44337546D01*
X39293796Y-44222331D01*
X39344091Y-44087483D01*
X39350500Y-44027873D01*
X39350499Y-42232128D01*
X39344091Y-42172517D01*
X39342617Y-42168566D01*
X39293797Y-42037671D01*
X39293793Y-42037664D01*
X39207547Y-41922455D01*
X39207544Y-41922452D01*
X39092335Y-41836206D01*
X39092328Y-41836202D01*
X38957482Y-41785908D01*
X38957483Y-41785908D01*
X38897883Y-41779501D01*
X38897881Y-41779500D01*
X38897873Y-41779500D01*
X38897865Y-41779500D01*
X38724500Y-41779500D01*
X38657461Y-41759815D01*
X38611706Y-41707011D01*
X38600500Y-41655500D01*
X38600500Y-38585451D01*
X38620185Y-38518412D01*
X38636814Y-38497775D01*
X39877819Y-37256769D01*
X39939142Y-37223285D01*
X40008834Y-37228269D01*
G37*
%TD.AperFunction*%
%TA.AperFunction,Conductor*%
G36*
X30350203Y-24235239D02*
G01*
X30356681Y-24241271D01*
X31684139Y-25568729D01*
X31684142Y-25568733D01*
X31771267Y-25655858D01*
X31848190Y-25707256D01*
X31853990Y-25711132D01*
X31853993Y-25711134D01*
X31873710Y-25724309D01*
X31873712Y-25724310D01*
X31873715Y-25724312D01*
X31940396Y-25751931D01*
X31940398Y-25751933D01*
X31980640Y-25768601D01*
X31987548Y-25771463D01*
X32047971Y-25783481D01*
X32108393Y-25795500D01*
X32108394Y-25795500D01*
X32994748Y-25795500D01*
X33061787Y-25815185D01*
X33107542Y-25867989D01*
X33117486Y-25937147D01*
X33088461Y-26000703D01*
X33069060Y-26018766D01*
X33057452Y-26027455D01*
X32971206Y-26142664D01*
X32971202Y-26142671D01*
X32920908Y-26277517D01*
X32914501Y-26337116D01*
X32914500Y-26337135D01*
X32914500Y-27432870D01*
X32914501Y-27432876D01*
X32920908Y-27492483D01*
X32971202Y-27627328D01*
X32971206Y-27627335D01*
X33057452Y-27742544D01*
X33057455Y-27742547D01*
X33172664Y-27828793D01*
X33172671Y-27828797D01*
X33307517Y-27879091D01*
X33307516Y-27879091D01*
X33314444Y-27879835D01*
X33367127Y-27885500D01*
X36612872Y-27885499D01*
X36672483Y-27879091D01*
X36807331Y-27828796D01*
X36876470Y-27777037D01*
X36941932Y-27752621D01*
X37010205Y-27767472D01*
X37059611Y-27816876D01*
X37061265Y-27820010D01*
X37091904Y-27880143D01*
X37207555Y-28039321D01*
X37249698Y-28081464D01*
X37283183Y-28142787D01*
X37278199Y-28212479D01*
X37249700Y-28256825D01*
X37196172Y-28310354D01*
X37080472Y-28469599D01*
X37067647Y-28494770D01*
X37019672Y-28545565D01*
X36951851Y-28562359D01*
X36885716Y-28539820D01*
X36882853Y-28537740D01*
X36879477Y-28535213D01*
X36825453Y-28494770D01*
X36807330Y-28481203D01*
X36807328Y-28481202D01*
X36672482Y-28430908D01*
X36672483Y-28430908D01*
X36612883Y-28424501D01*
X36612881Y-28424500D01*
X36612873Y-28424500D01*
X36612864Y-28424500D01*
X33367129Y-28424500D01*
X33367123Y-28424501D01*
X33307516Y-28430908D01*
X33172671Y-28481202D01*
X33172664Y-28481206D01*
X33057455Y-28567452D01*
X33057452Y-28567455D01*
X32971206Y-28682664D01*
X32971202Y-28682671D01*
X32920908Y-28817517D01*
X32914501Y-28877116D01*
X32914500Y-28877135D01*
X32914500Y-29810548D01*
X32894815Y-29877587D01*
X32842011Y-29923342D01*
X32772853Y-29933286D01*
X32709297Y-29904261D01*
X32702819Y-29898229D01*
X30137428Y-27332838D01*
X30103943Y-27271515D01*
X30107177Y-27206841D01*
X30112246Y-27191243D01*
X30145500Y-26981287D01*
X30145500Y-26768713D01*
X30112246Y-26558757D01*
X30046557Y-26356588D01*
X29950051Y-26167184D01*
X29950049Y-26167181D01*
X29950048Y-26167179D01*
X29825109Y-25995213D01*
X29674786Y-25844890D01*
X29502817Y-25719949D01*
X29493504Y-25715204D01*
X29442707Y-25667230D01*
X29425912Y-25599409D01*
X29448449Y-25533274D01*
X29493507Y-25494232D01*
X29502555Y-25489622D01*
X29556716Y-25450270D01*
X29556717Y-25450270D01*
X28924408Y-24817962D01*
X28987993Y-24800925D01*
X29102007Y-24735099D01*
X29195099Y-24642007D01*
X29260925Y-24527993D01*
X29277962Y-24464408D01*
X29910270Y-25096717D01*
X29910270Y-25096716D01*
X29949622Y-25042554D01*
X30046095Y-24853217D01*
X30111757Y-24651130D01*
X30111757Y-24651127D01*
X30145000Y-24441246D01*
X30145000Y-24328952D01*
X30164685Y-24261913D01*
X30217489Y-24216158D01*
X30286647Y-24206214D01*
X30350203Y-24235239D01*
G37*
%TD.AperFunction*%
%TA.AperFunction,Conductor*%
G36*
X37799599Y-25815185D02*
G01*
X37845354Y-25867989D01*
X37855298Y-25937147D01*
X37826273Y-26000703D01*
X37770879Y-26037431D01*
X37681162Y-26066582D01*
X37505856Y-26155904D01*
X37346681Y-26271553D01*
X37269695Y-26348539D01*
X37208371Y-26382023D01*
X37138680Y-26377038D01*
X37082746Y-26335167D01*
X37062857Y-26284599D01*
X37060876Y-26285068D01*
X37059092Y-26277520D01*
X37056866Y-26271553D01*
X37043055Y-26234522D01*
X37008797Y-26142671D01*
X37008793Y-26142664D01*
X36922547Y-26027455D01*
X36910940Y-26018766D01*
X36869070Y-25962832D01*
X36864086Y-25893140D01*
X36897572Y-25831818D01*
X36958895Y-25798333D01*
X36985252Y-25795500D01*
X37732560Y-25795500D01*
X37799599Y-25815185D01*
G37*
%TD.AperFunction*%
%TA.AperFunction,Conductor*%
G36*
X60942539Y-17020185D02*
G01*
X60988294Y-17072989D01*
X60999500Y-17124500D01*
X60999500Y-57875500D01*
X60979815Y-57942539D01*
X60927011Y-57988294D01*
X60875500Y-57999500D01*
X19624500Y-57999500D01*
X19557461Y-57979815D01*
X19511706Y-57927011D01*
X19500500Y-57875500D01*
X19500500Y-20897135D01*
X27444500Y-20897135D01*
X27444500Y-22692870D01*
X27444501Y-22692876D01*
X27450908Y-22752483D01*
X27501202Y-22887328D01*
X27501206Y-22887335D01*
X27587452Y-23002544D01*
X27587455Y-23002547D01*
X27702664Y-23088793D01*
X27702671Y-23088797D01*
X27747618Y-23105561D01*
X27837517Y-23139091D01*
X27897127Y-23145500D01*
X27907685Y-23145499D01*
X27974723Y-23165179D01*
X27995372Y-23181818D01*
X28665591Y-23852037D01*
X28602007Y-23869075D01*
X28487993Y-23934901D01*
X28394901Y-24027993D01*
X28329075Y-24142007D01*
X28312037Y-24205591D01*
X27679728Y-23573282D01*
X27679727Y-23573282D01*
X27640380Y-23627439D01*
X27543904Y-23816782D01*
X27478242Y-24018869D01*
X27478242Y-24018872D01*
X27445000Y-24228753D01*
X27445000Y-24441246D01*
X27478242Y-24651127D01*
X27478242Y-24651130D01*
X27543904Y-24853217D01*
X27640375Y-25042550D01*
X27679728Y-25096716D01*
X28312037Y-24464408D01*
X28329075Y-24527993D01*
X28394901Y-24642007D01*
X28487993Y-24735099D01*
X28602007Y-24800925D01*
X28665590Y-24817962D01*
X28033282Y-25450269D01*
X28033282Y-25450270D01*
X28087452Y-25489626D01*
X28087451Y-25489626D01*
X28096495Y-25494234D01*
X28147292Y-25542208D01*
X28164087Y-25610029D01*
X28141550Y-25676164D01*
X28096499Y-25715202D01*
X28087182Y-25719949D01*
X27915213Y-25844890D01*
X27764890Y-25995213D01*
X27639951Y-26167179D01*
X27543444Y-26356585D01*
X27477753Y-26558760D01*
X27444500Y-26768713D01*
X27444500Y-26981286D01*
X27472674Y-27159174D01*
X27477754Y-27191243D01*
X27523761Y-27332838D01*
X27543444Y-27393414D01*
X27639951Y-27582820D01*
X27764890Y-27754786D01*
X27915213Y-27905109D01*
X28087182Y-28030050D01*
X28095946Y-28034516D01*
X28146742Y-28082491D01*
X28163536Y-28150312D01*
X28140998Y-28216447D01*
X28095946Y-28255484D01*
X28087182Y-28259949D01*
X27915213Y-28384890D01*
X27764890Y-28535213D01*
X27639951Y-28707179D01*
X27543444Y-28896585D01*
X27477753Y-29098760D01*
X27444500Y-29308713D01*
X27444500Y-29521286D01*
X27472122Y-29695689D01*
X27477754Y-29731243D01*
X27539294Y-29920644D01*
X27543444Y-29933414D01*
X27639951Y-30122820D01*
X27764890Y-30294786D01*
X27915213Y-30445109D01*
X28087182Y-30570050D01*
X28095946Y-30574516D01*
X28146742Y-30622491D01*
X28163536Y-30690312D01*
X28140998Y-30756447D01*
X28095946Y-30795484D01*
X28087182Y-30799949D01*
X27915213Y-30924890D01*
X27764890Y-31075213D01*
X27639951Y-31247179D01*
X27543444Y-31436585D01*
X27477753Y-31638760D01*
X27452287Y-31799547D01*
X27444500Y-31848713D01*
X27444500Y-32061287D01*
X27477754Y-32271243D01*
X27533971Y-32444261D01*
X27543444Y-32473414D01*
X27639951Y-32662820D01*
X27764890Y-32834786D01*
X27915213Y-32985109D01*
X28087182Y-33110050D01*
X28095946Y-33114516D01*
X28146742Y-33162491D01*
X28163536Y-33230312D01*
X28140998Y-33296447D01*
X28095946Y-33335484D01*
X28087182Y-33339949D01*
X27915213Y-33464890D01*
X27764890Y-33615213D01*
X27639951Y-33787179D01*
X27543444Y-33976585D01*
X27477753Y-34178760D01*
X27460292Y-34289005D01*
X27444500Y-34388713D01*
X27444500Y-34601287D01*
X27477754Y-34811243D01*
X27533143Y-34981713D01*
X27543444Y-35013414D01*
X27639951Y-35202820D01*
X27764890Y-35374786D01*
X27915213Y-35525109D01*
X28087182Y-35650050D01*
X28095946Y-35654516D01*
X28146742Y-35702491D01*
X28163536Y-35770312D01*
X28140998Y-35836447D01*
X28095946Y-35875484D01*
X28087182Y-35879949D01*
X27915213Y-36004890D01*
X27764890Y-36155213D01*
X27639951Y-36327179D01*
X27543444Y-36516585D01*
X27477753Y-36718760D01*
X27444500Y-36928713D01*
X27444500Y-37141286D01*
X27464908Y-37270141D01*
X27477754Y-37351243D01*
X27530683Y-37514142D01*
X27543444Y-37553414D01*
X27639951Y-37742820D01*
X27764890Y-37914786D01*
X27915213Y-38065109D01*
X28087182Y-38190050D01*
X28095946Y-38194516D01*
X28146742Y-38242491D01*
X28163536Y-38310312D01*
X28140998Y-38376447D01*
X28095946Y-38415484D01*
X28087182Y-38419949D01*
X27915213Y-38544890D01*
X27764890Y-38695213D01*
X27639951Y-38867179D01*
X27543444Y-39056585D01*
X27477753Y-39258760D01*
X27468990Y-39314091D01*
X27444500Y-39468713D01*
X27444500Y-39681287D01*
X27445271Y-39686154D01*
X27468255Y-39831273D01*
X27477754Y-39891243D01*
X27535320Y-40068413D01*
X27543444Y-40093414D01*
X27639951Y-40282820D01*
X27764890Y-40454786D01*
X27915213Y-40605109D01*
X28087179Y-40730048D01*
X28087181Y-40730049D01*
X28087184Y-40730051D01*
X28276588Y-40826557D01*
X28478757Y-40892246D01*
X28688713Y-40925500D01*
X28688714Y-40925500D01*
X28901286Y-40925500D01*
X28901287Y-40925500D01*
X29111243Y-40892246D01*
X29313412Y-40826557D01*
X29502816Y-40730051D01*
X29524789Y-40714086D01*
X29674786Y-40605109D01*
X29674788Y-40605106D01*
X29674792Y-40605104D01*
X29825104Y-40454792D01*
X29825106Y-40454788D01*
X29825109Y-40454786D01*
X29950048Y-40282820D01*
X29950047Y-40282820D01*
X29950051Y-40282816D01*
X30046557Y-40093412D01*
X30112246Y-39891243D01*
X30145500Y-39681287D01*
X30145500Y-39468713D01*
X30112246Y-39258757D01*
X30046557Y-39056588D01*
X29950051Y-38867184D01*
X29950049Y-38867181D01*
X29950048Y-38867179D01*
X29825109Y-38695213D01*
X29674786Y-38544890D01*
X29502820Y-38419951D01*
X29502115Y-38419591D01*
X29494054Y-38415485D01*
X29443259Y-38367512D01*
X29426463Y-38299692D01*
X29448999Y-38233556D01*
X29494054Y-38194515D01*
X29502816Y-38190051D01*
X29637009Y-38092555D01*
X29674786Y-38065109D01*
X29674788Y-38065106D01*
X29674792Y-38065104D01*
X29825104Y-37914792D01*
X29825104Y-37914791D01*
X29825107Y-37914789D01*
X29825109Y-37914786D01*
X29950048Y-37742820D01*
X29950047Y-37742820D01*
X29950051Y-37742816D01*
X30046557Y-37553412D01*
X30112246Y-37351243D01*
X30145500Y-37141287D01*
X30145500Y-36928713D01*
X30112246Y-36718757D01*
X30046557Y-36516588D01*
X29950051Y-36327184D01*
X29950049Y-36327181D01*
X29950048Y-36327179D01*
X29825109Y-36155213D01*
X29674786Y-36004890D01*
X29502820Y-35879951D01*
X29502115Y-35879591D01*
X29494054Y-35875485D01*
X29443259Y-35827512D01*
X29426463Y-35759692D01*
X29448999Y-35693556D01*
X29494054Y-35654515D01*
X29502816Y-35650051D01*
X29562733Y-35606519D01*
X29674786Y-35525109D01*
X29674788Y-35525106D01*
X29674792Y-35525104D01*
X29825104Y-35374792D01*
X29825106Y-35374788D01*
X29825109Y-35374786D01*
X29950048Y-35202820D01*
X29950047Y-35202820D01*
X29950051Y-35202816D01*
X30046557Y-35013412D01*
X30112246Y-34811243D01*
X30145500Y-34601287D01*
X30145500Y-34388713D01*
X30112246Y-34178757D01*
X30046557Y-33976588D01*
X29950051Y-33787184D01*
X29950049Y-33787181D01*
X29950048Y-33787179D01*
X29825109Y-33615213D01*
X29674786Y-33464890D01*
X29502820Y-33339951D01*
X29502115Y-33339591D01*
X29494054Y-33335485D01*
X29443259Y-33287512D01*
X29426463Y-33219692D01*
X29448999Y-33153556D01*
X29494054Y-33114515D01*
X29502816Y-33110051D01*
X29579276Y-33054500D01*
X29674786Y-32985109D01*
X29674788Y-32985106D01*
X29674792Y-32985104D01*
X29825104Y-32834792D01*
X29825106Y-32834788D01*
X29825109Y-32834786D01*
X29950048Y-32662820D01*
X29950047Y-32662820D01*
X29950051Y-32662816D01*
X30046557Y-32473412D01*
X30112246Y-32271243D01*
X30145500Y-32061287D01*
X30145500Y-31949452D01*
X30165185Y-31882413D01*
X30217989Y-31836658D01*
X30287147Y-31826714D01*
X30350703Y-31855739D01*
X30357181Y-31861771D01*
X32574139Y-34078729D01*
X32574142Y-34078733D01*
X32661267Y-34165858D01*
X32738190Y-34217256D01*
X32743990Y-34221132D01*
X32743993Y-34221134D01*
X32763710Y-34234309D01*
X32763712Y-34234310D01*
X32763715Y-34234312D01*
X32830397Y-34261932D01*
X32837963Y-34265066D01*
X32867663Y-34289005D01*
X32892354Y-34308901D01*
X32892356Y-34308907D01*
X32892362Y-34308912D01*
X32902972Y-34340798D01*
X32914421Y-34375194D01*
X32914500Y-34379623D01*
X32914500Y-35052870D01*
X32914501Y-35052876D01*
X32920908Y-35112483D01*
X32971202Y-35247328D01*
X32971206Y-35247335D01*
X33057452Y-35362544D01*
X33057453Y-35362544D01*
X33057454Y-35362546D01*
X33065835Y-35368820D01*
X33073559Y-35374602D01*
X33084890Y-35389739D01*
X33099825Y-35401341D01*
X33105395Y-35417132D01*
X33115429Y-35430536D01*
X33116777Y-35449397D01*
X33123069Y-35467231D01*
X33119218Y-35483525D01*
X33120413Y-35500228D01*
X33111349Y-35516825D01*
X33107001Y-35535228D01*
X33094951Y-35546855D01*
X33086927Y-35561550D01*
X33070331Y-35570612D01*
X33056722Y-35583744D01*
X33027228Y-35594147D01*
X33025604Y-35595035D01*
X33023438Y-35595485D01*
X32967971Y-35606518D01*
X32930259Y-35614019D01*
X32907550Y-35618536D01*
X32907548Y-35618537D01*
X32874207Y-35632347D01*
X32793718Y-35665685D01*
X32793709Y-35665690D01*
X32771356Y-35680627D01*
X32771351Y-35680630D01*
X32765561Y-35684500D01*
X32691267Y-35734142D01*
X32604142Y-35821267D01*
X32604139Y-35821270D01*
X32600454Y-35824954D01*
X32600448Y-35824960D01*
X31719552Y-36705857D01*
X30911270Y-37514139D01*
X30911267Y-37514142D01*
X30871997Y-37553412D01*
X30824139Y-37601269D01*
X30824138Y-37601271D01*
X30791915Y-37649497D01*
X30791914Y-37649499D01*
X30755690Y-37703709D01*
X30755685Y-37703718D01*
X30708540Y-37817538D01*
X30708537Y-37817546D01*
X30696996Y-37875572D01*
X30689195Y-37914792D01*
X30684500Y-37938394D01*
X30684500Y-46161606D01*
X30703213Y-46255688D01*
X30703213Y-46255690D01*
X30708534Y-46282444D01*
X30708537Y-46282451D01*
X30755688Y-46396286D01*
X30759588Y-46402122D01*
X30765700Y-46411270D01*
X30770189Y-46417987D01*
X30824142Y-46498733D01*
X30911267Y-46585858D01*
X30911270Y-46585860D01*
X30919363Y-46593953D01*
X32042571Y-47717161D01*
X32076056Y-47778484D01*
X32072822Y-47843158D01*
X32067753Y-47858757D01*
X32034500Y-48068713D01*
X32034500Y-48281286D01*
X32057563Y-48426904D01*
X32067754Y-48491243D01*
X32076125Y-48517007D01*
X32133444Y-48693414D01*
X32229951Y-48882820D01*
X32353250Y-49052528D01*
X32376730Y-49118335D01*
X32360904Y-49186388D01*
X32340613Y-49213094D01*
X31766757Y-49786951D01*
X31361270Y-50192438D01*
X31361267Y-50192441D01*
X31322120Y-50231588D01*
X31274142Y-50279565D01*
X31249619Y-50316267D01*
X31249618Y-50316266D01*
X31205689Y-50382011D01*
X31205685Y-50382018D01*
X31158540Y-50495837D01*
X31158535Y-50495853D01*
X31134546Y-50616460D01*
X31134510Y-50616640D01*
X31134500Y-50616693D01*
X31134500Y-53989703D01*
X31149902Y-54067139D01*
X31158537Y-54110548D01*
X31205688Y-54224383D01*
X31239915Y-54275606D01*
X31274142Y-54326830D01*
X31361267Y-54413955D01*
X31361270Y-54413957D01*
X31368554Y-54421241D01*
X32222919Y-55275606D01*
X32222948Y-55275637D01*
X32313167Y-55365856D01*
X32313170Y-55365858D01*
X32364393Y-55400084D01*
X32415617Y-55434312D01*
X32496110Y-55467652D01*
X32529451Y-55481463D01*
X32589874Y-55493481D01*
X32650296Y-55505500D01*
X40222063Y-55505500D01*
X40282485Y-55493481D01*
X40342908Y-55481463D01*
X40376248Y-55467652D01*
X40456742Y-55434312D01*
X40507965Y-55400084D01*
X40513777Y-55396201D01*
X40520727Y-55391556D01*
X40559189Y-55365858D01*
X40646314Y-55278733D01*
X40646315Y-55278731D01*
X40653381Y-55271665D01*
X40653384Y-55271661D01*
X48363751Y-47561293D01*
X48425072Y-47527810D01*
X48494764Y-47532794D01*
X48550697Y-47574666D01*
X48561915Y-47592681D01*
X48656586Y-47778484D01*
X48668896Y-47802642D01*
X48812339Y-48000076D01*
X48812343Y-48000081D01*
X48984918Y-48172656D01*
X48984923Y-48172660D01*
X49157136Y-48297779D01*
X49182361Y-48316106D01*
X49399815Y-48426904D01*
X49631924Y-48502321D01*
X49872973Y-48540500D01*
X49872974Y-48540500D01*
X50117026Y-48540500D01*
X50117027Y-48540500D01*
X50358076Y-48502321D01*
X50590185Y-48426904D01*
X50807639Y-48316106D01*
X51005083Y-48172655D01*
X51177655Y-48000083D01*
X51321106Y-47802639D01*
X51431904Y-47585185D01*
X51507321Y-47353076D01*
X51545500Y-47112027D01*
X51545500Y-46867973D01*
X51507321Y-46626924D01*
X51431904Y-46394815D01*
X51321106Y-46177361D01*
X51321104Y-46177358D01*
X51321103Y-46177356D01*
X51244838Y-46072385D01*
X51221358Y-46006578D01*
X51237184Y-45938525D01*
X51287290Y-45889830D01*
X51345156Y-45875500D01*
X51353253Y-45875500D01*
X51353254Y-45875500D01*
X51567097Y-45841630D01*
X51773009Y-45774726D01*
X51965919Y-45676433D01*
X52141078Y-45549172D01*
X52294172Y-45396078D01*
X52421433Y-45220919D01*
X52519726Y-45028009D01*
X52586630Y-44822097D01*
X52620500Y-44608254D01*
X52620500Y-44391779D01*
X54370000Y-44391779D01*
X54370000Y-44608220D01*
X54403857Y-44821981D01*
X54470735Y-45027814D01*
X54470736Y-45027817D01*
X54568996Y-45220660D01*
X54611829Y-45279615D01*
X54611830Y-45279616D01*
X55266119Y-44625326D01*
X55283734Y-44691063D01*
X55348902Y-44803937D01*
X55441063Y-44896098D01*
X55553937Y-44961266D01*
X55619672Y-44978880D01*
X54965382Y-45633168D01*
X55024342Y-45676005D01*
X55217182Y-45774263D01*
X55217185Y-45774264D01*
X55423018Y-45841142D01*
X55636780Y-45875000D01*
X55655208Y-45875000D01*
X55722247Y-45894685D01*
X55768002Y-45947489D01*
X55777946Y-46016647D01*
X55755526Y-46071885D01*
X55678896Y-46177357D01*
X55568097Y-46394812D01*
X55492678Y-46626927D01*
X55454500Y-46867973D01*
X55454500Y-47112026D01*
X55486783Y-47315855D01*
X55492679Y-47353076D01*
X55568096Y-47585185D01*
X55666586Y-47778484D01*
X55678896Y-47802642D01*
X55822339Y-48000076D01*
X55822343Y-48000081D01*
X55994918Y-48172656D01*
X55994923Y-48172660D01*
X56167136Y-48297779D01*
X56192361Y-48316106D01*
X56409815Y-48426904D01*
X56641924Y-48502321D01*
X56882973Y-48540500D01*
X56882974Y-48540500D01*
X57127026Y-48540500D01*
X57127027Y-48540500D01*
X57368076Y-48502321D01*
X57600185Y-48426904D01*
X57817639Y-48316106D01*
X58015083Y-48172655D01*
X58187655Y-48000083D01*
X58331106Y-47802639D01*
X58441904Y-47585185D01*
X58517321Y-47353076D01*
X58555500Y-47112027D01*
X58555500Y-46867973D01*
X58517321Y-46626924D01*
X58441904Y-46394815D01*
X58331106Y-46177361D01*
X58254837Y-46072385D01*
X58187660Y-45979923D01*
X58187656Y-45979918D01*
X58015081Y-45807343D01*
X58015076Y-45807339D01*
X57817642Y-45663896D01*
X57817641Y-45663895D01*
X57817639Y-45663894D01*
X57600185Y-45553096D01*
X57368076Y-45477679D01*
X57368074Y-45477678D01*
X57368072Y-45477678D01*
X57142855Y-45442007D01*
X57127027Y-45439500D01*
X57005371Y-45439500D01*
X56938332Y-45419815D01*
X56892577Y-45367011D01*
X56882633Y-45297853D01*
X56905053Y-45242614D01*
X56921005Y-45220657D01*
X57019263Y-45027817D01*
X57019264Y-45027814D01*
X57086142Y-44821981D01*
X57120000Y-44608220D01*
X57120000Y-44391779D01*
X57086142Y-44178018D01*
X57019264Y-43972185D01*
X57019263Y-43972182D01*
X56921005Y-43779342D01*
X56878168Y-43720383D01*
X56878168Y-43720382D01*
X56223880Y-44374672D01*
X56206266Y-44308937D01*
X56141098Y-44196063D01*
X56048937Y-44103902D01*
X55936063Y-44038734D01*
X55870326Y-44021119D01*
X56524616Y-43366830D01*
X56524615Y-43366829D01*
X56465660Y-43323996D01*
X56272817Y-43225736D01*
X56272814Y-43225735D01*
X56066981Y-43158857D01*
X55853220Y-43125000D01*
X55636780Y-43125000D01*
X55423018Y-43158857D01*
X55217185Y-43225735D01*
X55217182Y-43225736D01*
X55024346Y-43323992D01*
X54965383Y-43366830D01*
X55619673Y-44021119D01*
X55553937Y-44038734D01*
X55441063Y-44103902D01*
X55348902Y-44196063D01*
X55283734Y-44308937D01*
X55266119Y-44374672D01*
X54611830Y-43720383D01*
X54568992Y-43779346D01*
X54470736Y-43972182D01*
X54470735Y-43972185D01*
X54403857Y-44178018D01*
X54370000Y-44391779D01*
X52620500Y-44391779D01*
X52620500Y-44391746D01*
X52586630Y-44177903D01*
X52519726Y-43971991D01*
X52519726Y-43971990D01*
X52442439Y-43820308D01*
X52421433Y-43779081D01*
X52294172Y-43603922D01*
X52141078Y-43450828D01*
X51965919Y-43323567D01*
X51958418Y-43319745D01*
X51773009Y-43225273D01*
X51773006Y-43225272D01*
X51567098Y-43158370D01*
X51460175Y-43141435D01*
X51353254Y-43124500D01*
X51136746Y-43124500D01*
X51129612Y-43125630D01*
X50922901Y-43158370D01*
X50716993Y-43225272D01*
X50716990Y-43225273D01*
X50524080Y-43323567D01*
X50424145Y-43396174D01*
X50348922Y-43450828D01*
X50348920Y-43450830D01*
X50348919Y-43450830D01*
X50195830Y-43603919D01*
X50195830Y-43603920D01*
X50195828Y-43603922D01*
X50141174Y-43679145D01*
X50068567Y-43779080D01*
X49970273Y-43971990D01*
X49970271Y-43971996D01*
X49903370Y-44177901D01*
X49895633Y-44226744D01*
X49865701Y-44289877D01*
X49860841Y-44295023D01*
X39937685Y-54218181D01*
X39876362Y-54251666D01*
X39850004Y-54254500D01*
X39211924Y-54254500D01*
X39144885Y-54234815D01*
X39099130Y-54182011D01*
X39089186Y-54112853D01*
X39111605Y-54057615D01*
X39122355Y-54042819D01*
X39155051Y-53997816D01*
X39251557Y-53808412D01*
X39317246Y-53606243D01*
X39350500Y-53396287D01*
X39350500Y-53183713D01*
X39317246Y-52973757D01*
X39251557Y-52771588D01*
X39155051Y-52582184D01*
X39127623Y-52544432D01*
X39104145Y-52478631D01*
X39119970Y-52410577D01*
X39140258Y-52383874D01*
X51500858Y-40023277D01*
X51569312Y-39920829D01*
X51616463Y-39806995D01*
X51640500Y-39686150D01*
X51640500Y-39562937D01*
X51640500Y-38169499D01*
X51660185Y-38102460D01*
X51712989Y-38056705D01*
X51764500Y-38045499D01*
X52637871Y-38045499D01*
X52637872Y-38045499D01*
X52697483Y-38039091D01*
X52832331Y-37988796D01*
X52947546Y-37902546D01*
X53033796Y-37787331D01*
X53084091Y-37652483D01*
X53090500Y-37592873D01*
X53090499Y-36497128D01*
X53084820Y-36444297D01*
X53084091Y-36437516D01*
X53033797Y-36302671D01*
X53033793Y-36302664D01*
X52947547Y-36187455D01*
X52947544Y-36187452D01*
X52832335Y-36101206D01*
X52832328Y-36101202D01*
X52697482Y-36050908D01*
X52697483Y-36050908D01*
X52637883Y-36044501D01*
X52637881Y-36044500D01*
X52637873Y-36044500D01*
X52637865Y-36044500D01*
X50659451Y-36044500D01*
X50592412Y-36024815D01*
X50546657Y-35972011D01*
X50536713Y-35902853D01*
X50565738Y-35839297D01*
X50571770Y-35832819D01*
X50862771Y-35541818D01*
X50924094Y-35508333D01*
X50950452Y-35505499D01*
X52637871Y-35505499D01*
X52637872Y-35505499D01*
X52697483Y-35499091D01*
X52832331Y-35448796D01*
X52947546Y-35362546D01*
X53033796Y-35247331D01*
X53084091Y-35112483D01*
X53090500Y-35052873D01*
X53090499Y-33957128D01*
X53084091Y-33897517D01*
X53042939Y-33787184D01*
X53033797Y-33762671D01*
X53033793Y-33762664D01*
X52947547Y-33647455D01*
X52947544Y-33647452D01*
X52832335Y-33561206D01*
X52832328Y-33561202D01*
X52697482Y-33510908D01*
X52697483Y-33510908D01*
X52637883Y-33504501D01*
X52637881Y-33504500D01*
X52637873Y-33504500D01*
X52637864Y-33504500D01*
X49392129Y-33504500D01*
X49392123Y-33504501D01*
X49332516Y-33510908D01*
X49197671Y-33561202D01*
X49197664Y-33561206D01*
X49082455Y-33647452D01*
X49082452Y-33647455D01*
X48996206Y-33762664D01*
X48996202Y-33762671D01*
X48945908Y-33897517D01*
X48939501Y-33957116D01*
X48939501Y-33957123D01*
X48939500Y-33957135D01*
X48939500Y-35052870D01*
X48939501Y-35052876D01*
X48945908Y-35112483D01*
X48996202Y-35247328D01*
X48996206Y-35247335D01*
X49082451Y-35362542D01*
X49082454Y-35362546D01*
X49082457Y-35362548D01*
X49088728Y-35368820D01*
X49086396Y-35371151D01*
X49118644Y-35414198D01*
X49123651Y-35483889D01*
X49090186Y-35545223D01*
X49090157Y-35545251D01*
X48901267Y-35734142D01*
X48716270Y-35919139D01*
X48716267Y-35919142D01*
X48672703Y-35962705D01*
X48629140Y-36006268D01*
X48607130Y-36039209D01*
X48607126Y-36039216D01*
X48603595Y-36044501D01*
X48560688Y-36108714D01*
X48528074Y-36187454D01*
X48525843Y-36192838D01*
X48525837Y-36192851D01*
X48513539Y-36222539D01*
X48513538Y-36222544D01*
X48513537Y-36222547D01*
X48513537Y-36222548D01*
X48492725Y-36327184D01*
X48489500Y-36343396D01*
X48489500Y-40577695D01*
X48469815Y-40644734D01*
X48453181Y-40665376D01*
X46499799Y-42618757D01*
X46438476Y-42652242D01*
X46368784Y-42647258D01*
X46312851Y-42605386D01*
X46294187Y-42569393D01*
X46264409Y-42477746D01*
X46185804Y-42323475D01*
X46084032Y-42183397D01*
X45961602Y-42060967D01*
X45821524Y-41959195D01*
X45667257Y-41880591D01*
X45502589Y-41827087D01*
X45502581Y-41827085D01*
X45495000Y-41825884D01*
X45495000Y-42894670D01*
X45475255Y-42874925D01*
X45389745Y-42825556D01*
X45294370Y-42800000D01*
X45195630Y-42800000D01*
X45100255Y-42825556D01*
X45014745Y-42874925D01*
X44995000Y-42894670D01*
X44995000Y-41825884D01*
X44994999Y-41825884D01*
X44987418Y-41827085D01*
X44987410Y-41827087D01*
X44822742Y-41880591D01*
X44668475Y-41959195D01*
X44528401Y-42060964D01*
X44420799Y-42168566D01*
X44359476Y-42202050D01*
X44289784Y-42197066D01*
X44233851Y-42155194D01*
X44227585Y-42145988D01*
X44187712Y-42081344D01*
X44063656Y-41957288D01*
X43950438Y-41887455D01*
X43914336Y-41865187D01*
X43914331Y-41865185D01*
X43912862Y-41864698D01*
X43747797Y-41810001D01*
X43747795Y-41810000D01*
X43645010Y-41799500D01*
X42844998Y-41799500D01*
X42844980Y-41799501D01*
X42821133Y-41801938D01*
X42752440Y-41789168D01*
X42720851Y-41766261D01*
X41856918Y-40902328D01*
X41823433Y-40841005D01*
X41828417Y-40771313D01*
X41870285Y-40715383D01*
X41947546Y-40657546D01*
X42033796Y-40542331D01*
X42084091Y-40407483D01*
X42090500Y-40347873D01*
X42090500Y-40347844D01*
X43090000Y-40347844D01*
X43096401Y-40407372D01*
X43096403Y-40407379D01*
X43146645Y-40542086D01*
X43146649Y-40542093D01*
X43232809Y-40657187D01*
X43232812Y-40657190D01*
X43347906Y-40743350D01*
X43347913Y-40743354D01*
X43482620Y-40793596D01*
X43482627Y-40793598D01*
X43542155Y-40799999D01*
X43542172Y-40800000D01*
X43840000Y-40800000D01*
X44340000Y-40800000D01*
X44637828Y-40800000D01*
X44637844Y-40799999D01*
X44697372Y-40793598D01*
X44697379Y-40793596D01*
X44832086Y-40743354D01*
X44832093Y-40743350D01*
X44947187Y-40657190D01*
X44947190Y-40657187D01*
X45033350Y-40542093D01*
X45033354Y-40542086D01*
X45083596Y-40407379D01*
X45083598Y-40407372D01*
X45089999Y-40347844D01*
X45090000Y-40347827D01*
X45090000Y-38975000D01*
X44340000Y-38975000D01*
X44340000Y-40800000D01*
X43840000Y-40800000D01*
X43840000Y-38975000D01*
X43090000Y-38975000D01*
X43090000Y-40347844D01*
X42090500Y-40347844D01*
X42090499Y-38695213D01*
X42090499Y-37102155D01*
X43090000Y-37102155D01*
X43090000Y-38475000D01*
X43840000Y-38475000D01*
X44340000Y-38475000D01*
X45090000Y-38475000D01*
X45090000Y-37102172D01*
X45089999Y-37102155D01*
X45083598Y-37042627D01*
X45083596Y-37042620D01*
X45033354Y-36907913D01*
X45033350Y-36907906D01*
X44947190Y-36792812D01*
X44947187Y-36792809D01*
X44832093Y-36706649D01*
X44832086Y-36706645D01*
X44697379Y-36656403D01*
X44697372Y-36656401D01*
X44637844Y-36650000D01*
X44340000Y-36650000D01*
X44340000Y-38475000D01*
X43840000Y-38475000D01*
X43840000Y-36650000D01*
X43542155Y-36650000D01*
X43482627Y-36656401D01*
X43482620Y-36656403D01*
X43347913Y-36706645D01*
X43347906Y-36706649D01*
X43232812Y-36792809D01*
X43232809Y-36792812D01*
X43146649Y-36907906D01*
X43146645Y-36907913D01*
X43096403Y-37042620D01*
X43096401Y-37042627D01*
X43090000Y-37102155D01*
X42090499Y-37102155D01*
X42090499Y-37102129D01*
X42090498Y-37102123D01*
X42084091Y-37042516D01*
X42033797Y-36907671D01*
X42033793Y-36907664D01*
X41947547Y-36792455D01*
X41947544Y-36792452D01*
X41832335Y-36706206D01*
X41832328Y-36706202D01*
X41697482Y-36655908D01*
X41697483Y-36655908D01*
X41637883Y-36649501D01*
X41637881Y-36649500D01*
X41637873Y-36649500D01*
X41637865Y-36649500D01*
X40784450Y-36649500D01*
X40717411Y-36629815D01*
X40671656Y-36577011D01*
X40661712Y-36507853D01*
X40690737Y-36444297D01*
X40696754Y-36437834D01*
X46222771Y-30911819D01*
X46284094Y-30878334D01*
X46310452Y-30875500D01*
X49019748Y-30875500D01*
X49086787Y-30895185D01*
X49132542Y-30947989D01*
X49142486Y-31017147D01*
X49113461Y-31080703D01*
X49094060Y-31098766D01*
X49082452Y-31107455D01*
X48996206Y-31222664D01*
X48996202Y-31222671D01*
X48945908Y-31357517D01*
X48939501Y-31417116D01*
X48939501Y-31417123D01*
X48939500Y-31417135D01*
X48939500Y-32512870D01*
X48939501Y-32512876D01*
X48945908Y-32572483D01*
X48996202Y-32707328D01*
X48996206Y-32707335D01*
X49082452Y-32822544D01*
X49082455Y-32822547D01*
X49197664Y-32908793D01*
X49197671Y-32908797D01*
X49332517Y-32959091D01*
X49332516Y-32959091D01*
X49339444Y-32959835D01*
X49392127Y-32965500D01*
X52637872Y-32965499D01*
X52697483Y-32959091D01*
X52832331Y-32908796D01*
X52947546Y-32822546D01*
X53033796Y-32707331D01*
X53084091Y-32572483D01*
X53090500Y-32512873D01*
X53090499Y-31417128D01*
X53084091Y-31357517D01*
X53042939Y-31247184D01*
X53033797Y-31222671D01*
X53033793Y-31222664D01*
X52947547Y-31107455D01*
X52931440Y-31095397D01*
X52889569Y-31039462D01*
X52884586Y-30969771D01*
X52918072Y-30908448D01*
X52979396Y-30874964D01*
X52981430Y-30874540D01*
X53097452Y-30851463D01*
X53211286Y-30804311D01*
X53313733Y-30735858D01*
X53400858Y-30648733D01*
X53469311Y-30546286D01*
X53516463Y-30432452D01*
X53540500Y-30311606D01*
X53540500Y-23643394D01*
X53540080Y-23641284D01*
X53516463Y-23522549D01*
X53508668Y-23503731D01*
X53496932Y-23475397D01*
X53469312Y-23408715D01*
X53464590Y-23401649D01*
X53452257Y-23383191D01*
X53452256Y-23383190D01*
X53400858Y-23306267D01*
X53400856Y-23306264D01*
X53310637Y-23216045D01*
X53310606Y-23216016D01*
X52939841Y-22845251D01*
X52906356Y-22783928D01*
X52911340Y-22714236D01*
X52943600Y-22671142D01*
X52941275Y-22668817D01*
X52947542Y-22662548D01*
X52947546Y-22662546D01*
X53033796Y-22547331D01*
X53084091Y-22412483D01*
X53090500Y-22352873D01*
X53090499Y-21257128D01*
X53084091Y-21197517D01*
X53033796Y-21062669D01*
X53033795Y-21062668D01*
X53033793Y-21062664D01*
X52947547Y-20947455D01*
X52947544Y-20947452D01*
X52832335Y-20861206D01*
X52832328Y-20861202D01*
X52697482Y-20810908D01*
X52697483Y-20810908D01*
X52637883Y-20804501D01*
X52637881Y-20804500D01*
X52637873Y-20804500D01*
X52637864Y-20804500D01*
X49392129Y-20804500D01*
X49392123Y-20804501D01*
X49332516Y-20810908D01*
X49197671Y-20861202D01*
X49197664Y-20861206D01*
X49082455Y-20947452D01*
X49082452Y-20947455D01*
X48996206Y-21062664D01*
X48996202Y-21062671D01*
X48945908Y-21197517D01*
X48939501Y-21257116D01*
X48939501Y-21257123D01*
X48939500Y-21257135D01*
X48939500Y-22352870D01*
X48939501Y-22352876D01*
X48945908Y-22412483D01*
X48996202Y-22547328D01*
X48996206Y-22547335D01*
X49082452Y-22662544D01*
X49082455Y-22662547D01*
X49197664Y-22748793D01*
X49197671Y-22748797D01*
X49332517Y-22799091D01*
X49332516Y-22799091D01*
X49339444Y-22799835D01*
X49392127Y-22805500D01*
X51079547Y-22805499D01*
X51146586Y-22825184D01*
X51167228Y-22841818D01*
X51458729Y-23133319D01*
X51492214Y-23194642D01*
X51487230Y-23264334D01*
X51445358Y-23320267D01*
X51379894Y-23344684D01*
X51371048Y-23345000D01*
X51265000Y-23345000D01*
X51265000Y-25345000D01*
X52165500Y-25345000D01*
X52232539Y-25364685D01*
X52278294Y-25417489D01*
X52289500Y-25469000D01*
X52289500Y-25760500D01*
X52269815Y-25827539D01*
X52217011Y-25873294D01*
X52165500Y-25884500D01*
X50950452Y-25884500D01*
X50883413Y-25864815D01*
X50862771Y-25848181D01*
X50571271Y-25556681D01*
X50537786Y-25495358D01*
X50542770Y-25425666D01*
X50584642Y-25369733D01*
X50650106Y-25345316D01*
X50658952Y-25345000D01*
X50765000Y-25345000D01*
X50765000Y-24595000D01*
X49571005Y-24595000D01*
X49562829Y-24593373D01*
X49557752Y-24594290D01*
X49523554Y-24585562D01*
X49515792Y-24582347D01*
X49515791Y-24582346D01*
X49482455Y-24568538D01*
X49482453Y-24568537D01*
X49482452Y-24568537D01*
X49422029Y-24556518D01*
X49361610Y-24544500D01*
X49361607Y-24544500D01*
X49361606Y-24544500D01*
X37189500Y-24544500D01*
X37122461Y-24524815D01*
X37076706Y-24472011D01*
X37065500Y-24420500D01*
X37065499Y-23797155D01*
X48940000Y-23797155D01*
X48940000Y-24095000D01*
X50765000Y-24095000D01*
X50765000Y-23345000D01*
X49392155Y-23345000D01*
X49332627Y-23351401D01*
X49332620Y-23351403D01*
X49197913Y-23401645D01*
X49197906Y-23401649D01*
X49082812Y-23487809D01*
X49082809Y-23487812D01*
X48996649Y-23602906D01*
X48996645Y-23602913D01*
X48946403Y-23737620D01*
X48946401Y-23737627D01*
X48940000Y-23797155D01*
X37065499Y-23797155D01*
X37065499Y-23797129D01*
X37065498Y-23797123D01*
X37059091Y-23737516D01*
X37008797Y-23602671D01*
X37008793Y-23602664D01*
X36922547Y-23487455D01*
X36922544Y-23487452D01*
X36807335Y-23401206D01*
X36807328Y-23401202D01*
X36672482Y-23350908D01*
X36672483Y-23350908D01*
X36612883Y-23344501D01*
X36612881Y-23344500D01*
X36612873Y-23344500D01*
X36612865Y-23344500D01*
X35731209Y-23344500D01*
X35664170Y-23324815D01*
X35618415Y-23272011D01*
X35608471Y-23202853D01*
X35609591Y-23196309D01*
X35609923Y-23194642D01*
X35615500Y-23166604D01*
X35615500Y-22929499D01*
X35635185Y-22862460D01*
X35687989Y-22816705D01*
X35739500Y-22805499D01*
X36612871Y-22805499D01*
X36612872Y-22805499D01*
X36672483Y-22799091D01*
X36807331Y-22748796D01*
X36922546Y-22662546D01*
X37008796Y-22547331D01*
X37059091Y-22412483D01*
X37065500Y-22352873D01*
X37065499Y-21257128D01*
X37059091Y-21197517D01*
X37008796Y-21062669D01*
X37008795Y-21062668D01*
X37008793Y-21062664D01*
X36922547Y-20947455D01*
X36922544Y-20947452D01*
X36807335Y-20861206D01*
X36807328Y-20861202D01*
X36672482Y-20810908D01*
X36672483Y-20810908D01*
X36612883Y-20804501D01*
X36612881Y-20804500D01*
X36612873Y-20804500D01*
X36612864Y-20804500D01*
X33367129Y-20804500D01*
X33367123Y-20804501D01*
X33307516Y-20810908D01*
X33172671Y-20861202D01*
X33172664Y-20861206D01*
X33057455Y-20947452D01*
X33057452Y-20947455D01*
X32971206Y-21062664D01*
X32971202Y-21062671D01*
X32920908Y-21197517D01*
X32914501Y-21257116D01*
X32914501Y-21257123D01*
X32914500Y-21257135D01*
X32914500Y-22352870D01*
X32914501Y-22352876D01*
X32920908Y-22412483D01*
X32971202Y-22547328D01*
X32971206Y-22547335D01*
X33057452Y-22662544D01*
X33057455Y-22662547D01*
X33172664Y-22748793D01*
X33172671Y-22748797D01*
X33307517Y-22799091D01*
X33307516Y-22799091D01*
X33314444Y-22799835D01*
X33367127Y-22805500D01*
X33921434Y-22805499D01*
X33988472Y-22825183D01*
X34034227Y-22877987D01*
X34044171Y-22947146D01*
X34035994Y-22976951D01*
X33980264Y-23111496D01*
X33980261Y-23111506D01*
X33953768Y-23244692D01*
X33921382Y-23306603D01*
X33860666Y-23341177D01*
X33832151Y-23344500D01*
X33367129Y-23344500D01*
X33367123Y-23344501D01*
X33307516Y-23350908D01*
X33172671Y-23401202D01*
X33172664Y-23401206D01*
X33057455Y-23487452D01*
X33057452Y-23487455D01*
X32971206Y-23602664D01*
X32971202Y-23602671D01*
X32920910Y-23737513D01*
X32920909Y-23737517D01*
X32914500Y-23797127D01*
X32914500Y-24158223D01*
X32914501Y-24420500D01*
X32894817Y-24487539D01*
X32842013Y-24533294D01*
X32790501Y-24544500D01*
X32480452Y-24544500D01*
X32413413Y-24524815D01*
X32392771Y-24508181D01*
X30181818Y-22297228D01*
X30148333Y-22235905D01*
X30145499Y-22209547D01*
X30145499Y-20897129D01*
X30145498Y-20897123D01*
X30145497Y-20897116D01*
X30139091Y-20837517D01*
X30129166Y-20810908D01*
X30088797Y-20702671D01*
X30088793Y-20702664D01*
X30002547Y-20587455D01*
X30002544Y-20587452D01*
X29887335Y-20501206D01*
X29887328Y-20501202D01*
X29752482Y-20450908D01*
X29752483Y-20450908D01*
X29692883Y-20444501D01*
X29692881Y-20444500D01*
X29692873Y-20444500D01*
X29692864Y-20444500D01*
X27897129Y-20444500D01*
X27897123Y-20444501D01*
X27837516Y-20450908D01*
X27702671Y-20501202D01*
X27702664Y-20501206D01*
X27587455Y-20587452D01*
X27587452Y-20587455D01*
X27501206Y-20702664D01*
X27501202Y-20702671D01*
X27450908Y-20837517D01*
X27444501Y-20897116D01*
X27444501Y-20897123D01*
X27444500Y-20897135D01*
X19500500Y-20897135D01*
X19500500Y-17124500D01*
X19520185Y-17057461D01*
X19572989Y-17011706D01*
X19624500Y-17000500D01*
X60875500Y-17000500D01*
X60942539Y-17020185D01*
G37*
%TD.AperFunction*%
%TD*%
%TA.AperFunction,NonConductor*%
G36*
X49018988Y-25804144D02*
G01*
X49048975Y-25810668D01*
X49053990Y-25814422D01*
X49056587Y-25815185D01*
X49077228Y-25831818D01*
X49090157Y-25844747D01*
X49123642Y-25906070D01*
X49118658Y-25975762D01*
X49086411Y-26018863D01*
X49088728Y-26021180D01*
X49082451Y-26027457D01*
X48996206Y-26142664D01*
X48996203Y-26142669D01*
X48960689Y-26237888D01*
X48918817Y-26293821D01*
X48853353Y-26318238D01*
X48785080Y-26303386D01*
X48756826Y-26282235D01*
X48629414Y-26154823D01*
X48481770Y-26007180D01*
X48448286Y-25945858D01*
X48453270Y-25876167D01*
X48495141Y-25820233D01*
X48560606Y-25795816D01*
X48569452Y-25795500D01*
X48989548Y-25795500D01*
X49018988Y-25804144D01*
G37*
%TD.AperFunction*%
%TA.AperFunction,NonConductor*%
G36*
X40317539Y-25815185D02*
G01*
X40363294Y-25867989D01*
X40374500Y-25919500D01*
X40374500Y-26386980D01*
X40354815Y-26454019D01*
X40302011Y-26499774D01*
X40232853Y-26509718D01*
X40169297Y-26480693D01*
X40150183Y-26459867D01*
X40114446Y-26410680D01*
X39975321Y-26271555D01*
X39816143Y-26155904D01*
X39640837Y-26066582D01*
X39551121Y-26037431D01*
X39493446Y-25997993D01*
X39466248Y-25933634D01*
X39478163Y-25864788D01*
X39525407Y-25813312D01*
X39589440Y-25795500D01*
X40250500Y-25795500D01*
X40317539Y-25815185D01*
G37*
%TD.AperFunction*%
%TA.AperFunction,NonConductor*%
G36*
X52232539Y-27905184D02*
G01*
X52278294Y-27957988D01*
X52289500Y-28009499D01*
X52289500Y-28300500D01*
X52269815Y-28367539D01*
X52217011Y-28413294D01*
X52165500Y-28424500D01*
X50950453Y-28424500D01*
X50883414Y-28404815D01*
X50862772Y-28388181D01*
X50571771Y-28097180D01*
X50538286Y-28035857D01*
X50543270Y-27966165D01*
X50585142Y-27910232D01*
X50650606Y-27885815D01*
X50659452Y-27885499D01*
X52165500Y-27885499D01*
X52232539Y-27905184D01*
G37*
%TD.AperFunction*%
%TA.AperFunction,NonConductor*%
G36*
X30350703Y-29315739D02*
G01*
X30357181Y-29321771D01*
X32601016Y-31565606D01*
X32601045Y-31565637D01*
X32691263Y-31655855D01*
X32691267Y-31655858D01*
X32793707Y-31724307D01*
X32793711Y-31724309D01*
X32793714Y-31724311D01*
X32837954Y-31742636D01*
X32892355Y-31786475D01*
X32914421Y-31852769D01*
X32914500Y-31857196D01*
X32914500Y-32350548D01*
X32894815Y-32417587D01*
X32842011Y-32463342D01*
X32772853Y-32473286D01*
X32709297Y-32444261D01*
X32702819Y-32438229D01*
X30137428Y-29872838D01*
X30103943Y-29811515D01*
X30107177Y-29746841D01*
X30112246Y-29731243D01*
X30145500Y-29521287D01*
X30145500Y-29409452D01*
X30165185Y-29342413D01*
X30217989Y-29296658D01*
X30287147Y-29286714D01*
X30350703Y-29315739D01*
G37*
%TD.AperFunction*%
%TA.AperFunction,NonConductor*%
G36*
X40336920Y-29859806D02*
G01*
X40371277Y-29920644D01*
X40374500Y-29948730D01*
X40374500Y-31799547D01*
X40354815Y-31866586D01*
X40338181Y-31887228D01*
X37277180Y-34948228D01*
X37215857Y-34981713D01*
X37146165Y-34976729D01*
X37090232Y-34934857D01*
X37065815Y-34869393D01*
X37065499Y-34860570D01*
X37065499Y-33957128D01*
X37059091Y-33897517D01*
X37017939Y-33787184D01*
X37008797Y-33762671D01*
X37008793Y-33762664D01*
X36922547Y-33647455D01*
X36906440Y-33635397D01*
X36864569Y-33579462D01*
X36859586Y-33509771D01*
X36893072Y-33448448D01*
X36954396Y-33414964D01*
X36956430Y-33414540D01*
X37072452Y-33391463D01*
X37186286Y-33344311D01*
X37288733Y-33275858D01*
X37375858Y-33188733D01*
X37444311Y-33086286D01*
X37491463Y-32972452D01*
X37515500Y-32851606D01*
X37515500Y-31078394D01*
X37491463Y-30957548D01*
X37444311Y-30843714D01*
X37444310Y-30843713D01*
X37444307Y-30843707D01*
X37375858Y-30741267D01*
X37375855Y-30741263D01*
X37288736Y-30654144D01*
X37288732Y-30654141D01*
X37186292Y-30585692D01*
X37186283Y-30585687D01*
X37072454Y-30538538D01*
X37072455Y-30538538D01*
X37072452Y-30538537D01*
X37072448Y-30538536D01*
X37072444Y-30538535D01*
X36956561Y-30515485D01*
X36894650Y-30483101D01*
X36860076Y-30422385D01*
X36863815Y-30352615D01*
X36904681Y-30295943D01*
X36906337Y-30294679D01*
X36922546Y-30282546D01*
X37008796Y-30167331D01*
X37054121Y-30045805D01*
X37095991Y-29989873D01*
X37161455Y-29965455D01*
X37229728Y-29980306D01*
X37257984Y-30001458D01*
X37335354Y-30078828D01*
X37494595Y-30194524D01*
X37577455Y-30236743D01*
X37669970Y-30283882D01*
X37669972Y-30283882D01*
X37669975Y-30283884D01*
X37770317Y-30316487D01*
X37857173Y-30344709D01*
X38051578Y-30375500D01*
X38051583Y-30375500D01*
X39248422Y-30375500D01*
X39442826Y-30344709D01*
X39630025Y-30283884D01*
X39805405Y-30194524D01*
X39964646Y-30078828D01*
X40103828Y-29939646D01*
X40150182Y-29875844D01*
X40205512Y-29833179D01*
X40275125Y-29827200D01*
X40336920Y-29859806D01*
G37*
%TD.AperFunction*%
%TA.AperFunction,NonConductor*%
G36*
X32833833Y-37463268D02*
G01*
X32889767Y-37505140D01*
X32914184Y-37570604D01*
X32914500Y-37579443D01*
X32914500Y-37592866D01*
X32914501Y-37592876D01*
X32920908Y-37652483D01*
X32971202Y-37787328D01*
X32971203Y-37787329D01*
X32971204Y-37787331D01*
X33057454Y-37902546D01*
X33057457Y-37902548D01*
X33063722Y-37908813D01*
X33061395Y-37911139D01*
X33093658Y-37954237D01*
X33098642Y-38023929D01*
X33065157Y-38085251D01*
X32147181Y-39003227D01*
X32085858Y-39036712D01*
X32016166Y-39031728D01*
X31960233Y-38989856D01*
X31935816Y-38924392D01*
X31935500Y-38915546D01*
X31935500Y-38310451D01*
X31955185Y-38243412D01*
X31971815Y-38222774D01*
X32702821Y-37491767D01*
X32764142Y-37458284D01*
X32833833Y-37463268D01*
G37*
%TD.AperFunction*%
%TA.AperFunction,NonConductor*%
G36*
X50332539Y-38065184D02*
G01*
X50378294Y-38117988D01*
X50389500Y-38169499D01*
X50389500Y-39314091D01*
X50369815Y-39381130D01*
X50353181Y-39401772D01*
X49952181Y-39802772D01*
X49890858Y-39836257D01*
X49821166Y-39831273D01*
X49765233Y-39789401D01*
X49740816Y-39723937D01*
X49740500Y-39715091D01*
X49740500Y-38169499D01*
X49760185Y-38102460D01*
X49812989Y-38056705D01*
X49864500Y-38045499D01*
X50265500Y-38045499D01*
X50332539Y-38065184D01*
G37*
%TD.AperFunction*%
%TA.AperFunction,NonConductor*%
G36*
X46966587Y-26265185D02*
G01*
X46987229Y-26281819D01*
X49090157Y-28384748D01*
X49123642Y-28446071D01*
X49118658Y-28515763D01*
X49086402Y-28558855D01*
X49088728Y-28561180D01*
X49082451Y-28567457D01*
X48996206Y-28682664D01*
X48996202Y-28682671D01*
X48945910Y-28817513D01*
X48945909Y-28817517D01*
X48939500Y-28877127D01*
X48939500Y-28877134D01*
X48939500Y-28877135D01*
X48939500Y-28877136D01*
X48939501Y-29500500D01*
X48919817Y-29567539D01*
X48867013Y-29613294D01*
X48815501Y-29624500D01*
X45938389Y-29624500D01*
X45887535Y-29634615D01*
X45887530Y-29634616D01*
X45877971Y-29636518D01*
X45817548Y-29648537D01*
X45770397Y-29668067D01*
X45703715Y-29695688D01*
X45703714Y-29695689D01*
X45681347Y-29710633D01*
X45681344Y-29710635D01*
X45601268Y-29764140D01*
X45557705Y-29807703D01*
X45514142Y-29851267D01*
X37579109Y-37786299D01*
X37579101Y-37786307D01*
X37576270Y-37789139D01*
X37576267Y-37789142D01*
X37489142Y-37876267D01*
X37458830Y-37921632D01*
X37454294Y-37928419D01*
X37454289Y-37928426D01*
X37420690Y-37978710D01*
X37420685Y-37978719D01*
X37393025Y-38045499D01*
X37393025Y-38045500D01*
X37373538Y-38092545D01*
X37373535Y-38092555D01*
X37349500Y-38213389D01*
X37349500Y-41655500D01*
X37329815Y-41722539D01*
X37277011Y-41768294D01*
X37225501Y-41779500D01*
X37102130Y-41779500D01*
X37102123Y-41779501D01*
X37042516Y-41785908D01*
X36907671Y-41836202D01*
X36907664Y-41836206D01*
X36792455Y-41922452D01*
X36792452Y-41922455D01*
X36706206Y-42037664D01*
X36706202Y-42037671D01*
X36655908Y-42172517D01*
X36649657Y-42230666D01*
X36649501Y-42232123D01*
X36649500Y-42232135D01*
X36649500Y-42345500D01*
X36629815Y-42412539D01*
X36577011Y-42458294D01*
X36525500Y-42469500D01*
X34859499Y-42469500D01*
X34792460Y-42449815D01*
X34746705Y-42397011D01*
X34735499Y-42345500D01*
X34735499Y-42197129D01*
X34735498Y-42197123D01*
X34732428Y-42168566D01*
X34729091Y-42137517D01*
X34691848Y-42037664D01*
X34678797Y-42002671D01*
X34678793Y-42002664D01*
X34592547Y-41887455D01*
X34592544Y-41887452D01*
X34477335Y-41801206D01*
X34477328Y-41801202D01*
X34342482Y-41750908D01*
X34342483Y-41750908D01*
X34282883Y-41744501D01*
X34282881Y-41744500D01*
X34282873Y-41744500D01*
X34282865Y-41744500D01*
X32959500Y-41744500D01*
X32892461Y-41724815D01*
X32846706Y-41672011D01*
X32835500Y-41620500D01*
X32835500Y-40135452D01*
X32855185Y-40068413D01*
X32871819Y-40047771D01*
X34837772Y-38081818D01*
X34899095Y-38048333D01*
X34925453Y-38045499D01*
X36612871Y-38045499D01*
X36612872Y-38045499D01*
X36672483Y-38039091D01*
X36807331Y-37988796D01*
X36922546Y-37902546D01*
X37008796Y-37787331D01*
X37059091Y-37652483D01*
X37065500Y-37592873D01*
X37065499Y-36907196D01*
X37069273Y-36894342D01*
X37068302Y-36880982D01*
X37078924Y-36861473D01*
X37085183Y-36840158D01*
X37096041Y-36830036D01*
X37101714Y-36819619D01*
X37121211Y-36806575D01*
X37129944Y-36798435D01*
X37135836Y-36795208D01*
X37186286Y-36774312D01*
X37237509Y-36740084D01*
X37288733Y-36705858D01*
X37375858Y-36618733D01*
X37375859Y-36618731D01*
X37382925Y-36611665D01*
X37382928Y-36611661D01*
X41398729Y-32595860D01*
X41398733Y-32595858D01*
X41485858Y-32508733D01*
X41554311Y-32406286D01*
X41554312Y-32406285D01*
X41581932Y-32339603D01*
X41601463Y-32292452D01*
X41625500Y-32171606D01*
X41625500Y-26369500D01*
X41645185Y-26302461D01*
X41697989Y-26256706D01*
X41749500Y-26245500D01*
X46899548Y-26245500D01*
X46966587Y-26265185D01*
G37*
%TD.AperFunction*%
%TA.AperFunction,NonConductor*%
G36*
X36583345Y-51009138D02*
G01*
X36615653Y-51011449D01*
X36617856Y-51013098D01*
X36620588Y-51013412D01*
X36645651Y-51033906D01*
X36671586Y-51053321D01*
X36673198Y-51056431D01*
X36674677Y-51057640D01*
X36690250Y-51089313D01*
X36748444Y-51268414D01*
X36844951Y-51457820D01*
X36863050Y-51482732D01*
X36886528Y-51548539D01*
X36870701Y-51616592D01*
X36850411Y-51643295D01*
X34930657Y-53563051D01*
X34869334Y-53596536D01*
X34799643Y-53591552D01*
X34743709Y-53549680D01*
X34719292Y-53484216D01*
X34720503Y-53455972D01*
X34729957Y-53396287D01*
X34735500Y-53361287D01*
X34735500Y-53148713D01*
X34702246Y-52938757D01*
X34697179Y-52923162D01*
X34695182Y-52853321D01*
X34727426Y-52797162D01*
X36484640Y-51039948D01*
X36487051Y-51038632D01*
X36488473Y-51036275D01*
X36517546Y-51021980D01*
X36545961Y-51006465D01*
X36548704Y-51006661D01*
X36551174Y-51005447D01*
X36583345Y-51009138D01*
G37*
%TD.AperFunction*%
%TA.AperFunction,NonConductor*%
G36*
X36664283Y-53701118D02*
G01*
X36720217Y-53742989D01*
X36738881Y-53778982D01*
X36748444Y-53808414D01*
X36844948Y-53997815D01*
X36888395Y-54057615D01*
X36911874Y-54123422D01*
X36896048Y-54191476D01*
X36845942Y-54240170D01*
X36788076Y-54254500D01*
X36307751Y-54254500D01*
X36240712Y-54234815D01*
X36194957Y-54182011D01*
X36185013Y-54112853D01*
X36214038Y-54049297D01*
X36220070Y-54042819D01*
X36273189Y-53989700D01*
X36533271Y-53729617D01*
X36594592Y-53696134D01*
X36664283Y-53701118D01*
G37*
%TD.AperFunction*%
M02*
